<svg xmlns="http://www.w3.org/2000/svg" viewBox="0 0 85.486 74.222"><defs><style>.a{fill:#fcd73f;}</style></defs><g transform="translate(0 -84.66)"><path class="a" d="M396.214,99.964h12.359l-5.146-15.3H392.66Zm0,0" transform="translate(-324.461)"/><path class="a" d="M6.464,219.364a6.471,6.471,0,0,0,6.464-6.464v-3.47H0v3.47a6.471,6.471,0,0,0,6.464,6.464Zm0,0" transform="translate(0 -103.099)"/><path class="a" d="M209.98,99.964h12.545l-2.092-15.3h-8.361Zm0,0" transform="translate(-173.51)"/><path class="a" d="M20.29,99.964l3.554-15.3H12.987L7.84,99.964Zm0,0" transform="translate(-6.478)"/><path class="a" d="M110.324,99.964h12.05l2.092-15.3H113.878Zm0,0" transform="translate(-91.162)"/><path class="a" d="M313.313,212.9a6.464,6.464,0,1,0,12.929,0v-3.47H313.313Zm0,0" transform="translate(-258.895 -103.099)"/><path class="a" d="M300.441,84.66l2.092,15.3h12.13l-3.554-15.3Zm0,0" transform="translate(-248.259 0)"/><path class="a" d="M117.366,212.9v-3.47H104.438v3.47a6.464,6.464,0,1,0,12.929,0Zm0,0" transform="translate(-86.298 -103.099)"/><path class="a" d="M221.8,212.9v-3.47H208.875v3.47a6.464,6.464,0,0,0,12.929,0Zm0,0" transform="translate(-172.597 -103.099)"/><path class="a" d="M424.215,219.364a6.471,6.471,0,0,0,6.464-6.464v-3.47H417.75v3.47A6.471,6.471,0,0,0,424.215,219.364Zm0,0" transform="translate(-345.193 -103.099)"/><path class="a" d="M280.642,275.268a11.656,11.656,0,0,1-13.152-3.6,11.688,11.688,0,0,1-6.479,4.041v37.7h19.63Zm-10.969,19.444H264.52V289.56h5.153Zm0,0" transform="translate(-215.678 -154.531)"/><path class="a" d="M19.5,273.391a11.65,11.65,0,0,1-14.4,2.614v38.829H19.5Zm0,0" transform="translate(-4.215 -155.952)"/><path class="a" d="M137.616,275.706a11.689,11.689,0,0,1-6.45-4.034,11.654,11.654,0,0,1-13.181,3.585v38.156h19.631Zm-8.662,19.007V289.56h5.152v5.153Zm0,0" transform="translate(-97.492 -154.531)"/><path class="a" d="M412.882,277.269a11.649,11.649,0,0,1-8.846-4.069v41.476h14.4V275.863A11.6,11.6,0,0,1,412.882,277.269Zm0,0" transform="translate(-333.861 -155.793)"/></g></svg>