<svg xmlns="http://www.w3.org/2000/svg" viewBox="0 0 85.963 80.59"><defs><style>.a{fill:#fcd73f;}</style></defs><g transform="translate(0 -16)"><g transform="translate(20.315 52.734)"><path class="a" d="M121,244.863v33.783h10.074V234.789Z" transform="translate(-121 -234.789)"/></g><g transform="translate(35.426 52.734)"><path class="a" d="M211,234.789v43.856h10.074V244.863Z" transform="translate(-211 -234.789)"/></g><g transform="translate(50.537 52.734)"><path class="a" d="M301,244.863v33.783h10.074V234.789Z" transform="translate(-301 -234.789)"/></g><g transform="translate(65.647 36.144)"><path class="a" d="M401.98,136.722,391,147.534v48.893h12.76a2.517,2.517,0,0,0,2.518-2.518V138.5A2.52,2.52,0,0,0,401.98,136.722Z" transform="translate(-391 -135.981)"/></g><g transform="translate(0 67.845)"><g transform="translate(0 0)"><path class="a" d="M.738,339.162A2.516,2.516,0,0,0,0,340.942v10.074a2.517,2.517,0,0,0,2.518,2.518h12.76V324.789Z" transform="translate(0 -324.789)"/></g></g><g transform="translate(0 16)"><g transform="translate(0 0)"><path class="a" d="M83.444,16H73.37a2.518,2.518,0,0,0,0,5.037h4.857L48.018,51.079l-13.33-13.33a2.518,2.518,0,0,0-3.561,0L.738,67.97A2.518,2.518,0,0,0,4.3,71.531L32.907,43.091l13.33,13.33a2.518,2.518,0,0,0,3.561,0L80.926,25.461v3.131a2.518,2.518,0,0,0,5.037,0V18.518A2.517,2.517,0,0,0,83.444,16Z" transform="translate(0 -16)"/></g></g></g></svg>