<svg xmlns="http://www.w3.org/2000/svg" viewBox="0 0 95.852 90.048"><defs><style>.a{fill:#fcd73f;}</style></defs><g transform="translate(0 -0.5)"><path class="a" d="M195.041.5A14.219,14.219,0,0,0,181,14.728a14.041,14.041,0,0,0,28.082,0A14.219,14.219,0,0,0,195.041.5Zm0,0" transform="translate(-147.115)"/><path class="a" d="M312.233,173.965A11.233,11.233,0,1,0,301,162.733,11.244,11.244,0,0,0,312.233,173.965Zm0,0" transform="translate(-244.65 -122.731)"/><path class="a" d="M2.808,256.43H5.616a5.616,5.616,0,0,0,5.616-5.616v-33.7A5.616,5.616,0,0,0,5.616,211.5H2.808A2.808,2.808,0,0,0,0,214.308v39.314A2.808,2.808,0,0,0,2.808,256.43Zm0,0" transform="translate(0 -171.499)"/><path class="a" d="M89.276,241.5v33.7a11.179,11.179,0,0,1-.167,1.652l16.385,8.1a14.128,14.128,0,0,0,6.277,1.481h25.366a11.229,11.229,0,0,0,5.9-1.675L166.035,268.5a5.63,5.63,0,0,0,1.122-7.868,5.525,5.525,0,0,0-7.863-1.121l-17.285,9.75a2.807,2.807,0,0,1-1.305.321H108.559a2.808,2.808,0,1,1,0-5.616h25.835a5.616,5.616,0,1,0,0-11.233H121.2l-13.311-8.874A13.978,13.978,0,0,0,100.1,241.5Zm0,0" transform="translate(-72.427 -195.882)"/></g></svg>