<svg xmlns="http://www.w3.org/2000/svg" viewBox="0 0 73.987 84.181"><defs><style>.a{fill:#fcd73f;}</style></defs><path class="a" d="M154,0H104.617a12.21,12.21,0,0,1,2.529,7.4V9.865H161.4V7.4A7.4,7.4,0,0,0,154,0Zm0,0" transform="translate(-87.416)"/><path class="a" d="M104.8,166H99.865v4.932H94.932V166H90v14.8h14.8Zm0,0" transform="translate(-75.203 -138.707)"/><path class="a" d="M104.8,346H99.865v4.932H94.932V346H90v14.8h14.8Zm0,0" transform="translate(-75.203 -289.112)"/><path class="a" d="M7.4,0A7.4,7.4,0,0,0,0,7.4V84.181H64.122V14.8H14.8V7.4A7.4,7.4,0,0,0,7.4,0ZM34.527,76.618H9.865V51.955H34.527ZM39.46,22.361h14.8v4.932H39.46Zm0,9.865h9.865v4.932H39.46Zm0,19.73h14.8v4.932H39.46Zm0,9.865h9.865v4.932H39.46Zm-4.932-39.46V47.023H9.865V22.361Zm0,0"/></svg>