<svg xmlns="http://www.w3.org/2000/svg" viewBox="0 0 197.438 245.019"><defs><style>.a{fill:#515151;opacity:0.2;}.b{fill:#fcd73f;}</style></defs><g transform="translate(-860.563 -4600.984)"><path class="a" d="M1.563-129.395l40.965-11.621H70.605V0H32.617V-104.785L8.984-99.414Z" transform="translate(859 4742)"/><g transform="translate(212.714 -255)"><ellipse class="b" cx="63" cy="64" rx="63" ry="64" transform="translate(719.286 4950)"/><g transform="translate(649.286 4910)"><g transform="translate(0 59.751)"><path d="M81.251,146.75H60.67L42.835,128.916A3.125,3.125,0,0,0,40.626,128H3.125A3.125,3.125,0,0,0,0,131.125v65.626a15.644,15.644,0,0,0,15.625,15.625h18.75A3.125,3.125,0,0,1,37.5,215.5v34.376a9.375,9.375,0,0,0,9.375,9.375h6.25a9.375,9.375,0,0,0,9.375-9.375V209.251a21.9,21.9,0,0,0-21.875-21.875H37.5V160.544l10.291,10.291a3.125,3.125,0,0,0,2.209.916H81.251a12.5,12.5,0,1,0,0-25Zm0,18.75H51.295l-14.71-14.71A3.125,3.125,0,0,0,31.251,153v37.5a3.125,3.125,0,0,0,3.125,3.125h6.25a15.644,15.644,0,0,1,15.625,15.625v40.626A3.125,3.125,0,0,1,53.126,253h-6.25a3.125,3.125,0,0,1-3.125-3.125V215.5a9.375,9.375,0,0,0-9.375-9.375H15.625a9.375,9.375,0,0,1-9.375-9.375v-62.5H39.332l17.835,17.835a3.125,3.125,0,0,0,2.209.916H81.251a6.25,6.25,0,1,1,0,12.5Z" transform="translate(0 -128)"/></g><g transform="translate(93.752 59.751)"><path d="M330.626,128h-37.5a3.125,3.125,0,0,0-2.209.916L273.082,146.75H252.5a12.5,12.5,0,0,0,0,25h31.251a3.125,3.125,0,0,0,2.209-.916l10.291-10.291v26.832h-3.125a21.9,21.9,0,0,0-21.875,21.875v40.626a9.375,9.375,0,0,0,9.375,9.375h6.25a9.375,9.375,0,0,0,9.375-9.375V215.5a3.125,3.125,0,0,1,3.125-3.125h18.75a15.644,15.644,0,0,0,15.625-15.625V131.125A3.125,3.125,0,0,0,330.626,128ZM327.5,196.751a9.375,9.375,0,0,1-9.375,9.375h-18.75A9.375,9.375,0,0,0,290,215.5v34.376A3.125,3.125,0,0,1,286.876,253h-6.25a3.125,3.125,0,0,1-3.125-3.125V209.251a15.644,15.644,0,0,1,15.625-15.625h6.25A3.125,3.125,0,0,0,302.5,190.5V153a3.125,3.125,0,0,0-5.334-2.209l-14.71,14.71H252.5a6.25,6.25,0,0,1,0-12.5h21.875a3.125,3.125,0,0,0,2.209-.916L294.42,134.25H327.5Z" transform="translate(-240 -128)"/></g><g transform="translate(53.126 109.752)"><path d="M214.126,256h-75a3.125,3.125,0,0,0,0,6.25H173.5V331h-9.375a3.125,3.125,0,1,0,0,6.25h25a3.125,3.125,0,1,0,0-6.25h-9.375V262.25h34.376a3.125,3.125,0,1,0,0-6.25Z" transform="translate(-136 -256)"/></g><g transform="translate(146.877 16)"><path d="M394.75,16H379.125A3.125,3.125,0,0,0,376,19.125V34.75A18.75,18.75,0,1,0,394.75,16Zm-6.121,29.664A12.459,12.459,0,0,1,382.25,34.75V31.725a39.179,39.179,0,0,1,23.335,9.144A12.46,12.46,0,0,1,388.629,45.664ZM382.25,25.475V22.25h12.5A12.5,12.5,0,0,1,407.2,34.235,45.315,45.315,0,0,0,382.25,25.475Z" transform="translate(-376 -16)"/></g><g transform="translate(3.125 16)"><path d="M42.376,16H26.75A18.75,18.75,0,1,0,45.5,34.75V19.125A3.125,3.125,0,0,0,42.376,16ZM39.251,34.75a12.459,12.459,0,0,1-23.335,6.119,39.179,39.179,0,0,1,23.335-9.144Zm0-9.275A45.314,45.314,0,0,0,14.3,34.225,12.5,12.5,0,0,1,26.75,22.25h12.5Z" transform="translate(-8 -16)"/></g></g></g></g></svg>