<svg xmlns="http://www.w3.org/2000/svg" viewBox="0 0 1920 476.272"><defs><style>.a{fill:#fff;}</style></defs><path class="a" d="M1920,741.272h0c-.257-.05-30.761-5.861-82.029-14.262-30.313-4.967-62.008-9.885-94.206-14.617-40.244-5.915-81.378-11.553-122.26-16.757-104.073-13.248-207.183-23.8-306.466-31.375-58.954-4.495-117.192-7.974-173.1-10.339-61.5-2.6-121.7-3.922-178.934-3.922s-117.518,1.32-179.192,3.922c-56.06,2.365-114.527,5.844-173.778,10.339-99.78,7.57-203.586,18.126-308.533,31.375-41.225,5.2-82.73,10.842-123.365,16.757-32.514,4.733-64.533,9.651-95.169,14.617C30.649,735.491.3,741.214,0,741.271V265H1920V741.271Z" transform="translate(0 -265)"/></svg>