<svg xmlns="http://www.w3.org/2000/svg" viewBox="0 0 90.048 90.048"><defs><style>.a{fill:#fcd73f;}</style></defs><g transform="translate(-0.001)"><path class="a" d="M11.257,14.07V2.814a2.814,2.814,0,1,1,5.628,0V14.07a2.814,2.814,0,0,1-5.628,0ZM59.1,16.884a2.813,2.813,0,0,0,2.814-2.814V2.814a2.814,2.814,0,0,0-5.629,0V14.07A2.813,2.813,0,0,0,59.1,16.884ZM90.049,67.535A22.512,22.512,0,1,1,67.537,45.024,22.513,22.513,0,0,1,90.049,67.535Zm-5.627,0A16.884,16.884,0,1,0,67.537,84.42,16.9,16.9,0,0,0,84.421,67.535ZM22.513,33.768H11.257V45.024H22.513ZM11.257,61.908H22.513V50.652H11.257ZM28.141,45.024H39.4V33.768H28.141Zm0,16.884H39.4V50.652H28.141ZM5.629,66.976V28.14H67.537V39.4h5.628V17.445a6.141,6.141,0,0,0-6.1-6.189H64.723V14.07a5.628,5.628,0,1,1-11.255,0V11.256H19.7V14.07a5.628,5.628,0,1,1-11.256,0V11.256H6.1A6.143,6.143,0,0,0,0,17.445V66.976a6.15,6.15,0,0,0,6.1,6.189H39.4V67.536H6.1A.532.532,0,0,1,5.629,66.976ZM56.281,45.024V33.768H45.025V45.024Zm19.7,22.511H67.537V59.093a2.814,2.814,0,0,0-5.627,0V70.35a2.812,2.812,0,0,0,2.813,2.814H75.979a2.814,2.814,0,0,0,0-5.629Z"/></g></svg>