<svg xmlns="http://www.w3.org/2000/svg" viewBox="0 0 263.832 263.833"><defs><style>.a,.d{fill:#fcd73f;}.b{fill:none;}.c,.d{stroke:none;}</style></defs><g transform="translate(-4.001 -3.997)"><g transform="translate(117.947 93.398)"><path class="a" d="M153.748,125.131c-.278-.131-1.658-.509-1.928-.146-.185.247.455.524.717.678.848.509,1.812.756,2.7,1.211a15.71,15.71,0,0,0,1.789.948C157.071,127.159,155.922,126.141,153.748,125.131Z" transform="translate(-151.787 -121.067)"/><path class="a" d="M161.438,122.619c-.224-.093-2.359-.81-2.529-.432-.108.247,2.074,1.342,2.336,1.457,1.072.524,2.089,1.079,3.115,1.673a23.362,23.362,0,0,0,2.344,1.357A17.834,17.834,0,0,0,161.438,122.619Z" transform="translate(-153.417 -120.436)"/><path class="a" d="M171.254,121a7.315,7.315,0,0,0-2.051-.571c-.185-.023-.995-.185-.848.077.17.3,1.018.64,1.318.81.571.316,1.164.571,1.735.871,1.033.547,2.02,1.164,3.022,1.735a25.174,25.174,0,0,0,2.637,1.511C177.445,125.04,173.212,121.863,171.254,121Z" transform="translate(-155.577 -120.042)"/><path class="a" d="M182.334,120.775a7.289,7.289,0,0,0-1.457-.586c-.185-.054-1.072-.355-1.249-.193-.154.146,1.75,1.4,1.982,1.55,1.033.625,2.043,1.241,3.053,1.92a24.894,24.894,0,0,0,2.429,1.665C187.461,124.807,184.4,121.923,182.334,120.775Z" transform="translate(-158.16 -119.949)"/><path class="a" d="M193.136,123.135c-.416-.3-.995-.756-1.55-.586-.47.131.093.547.378.756.864.586,1.719,1.21,2.544,1.881.131.116,1.38,1.264,1.542,1.318h.015C196.382,126.281,194.254,123.922,193.136,123.135Z" transform="translate(-160.859 -120.536)"/></g><path class="a" d="M238.248,128.023H187.106l1.935-43.763c0-8.134-7.032-14.75-15.683-14.75H122.38c-8.659,0-15.682,6.608-15.682,14.75l1.935,43.763H57.483a1.3,1.3,0,1,0,0,2.606H238.24a1.306,1.306,0,0,0,1.3-1.3A1.29,1.29,0,0,0,238.248,128.023Zm-83.81-30.4a17.345,17.345,0,0,1,2.174-4.873,24.768,24.768,0,0,0,2.321-4.526,7.073,7.073,0,0,0,.262-3.948,9.82,9.82,0,0,0-1.095-2.583c-.278-.432-.455-.717-.532-.833.077.077.324.339.7.732a9.061,9.061,0,0,1,1.511,2.529,7.2,7.2,0,0,1,.154,4.372,18.875,18.875,0,0,1-2.244,4.827,21.784,21.784,0,0,0-2.259,4.541,6.588,6.588,0,0,0-.015,3.94,10.108,10.108,0,0,0,1.264,2.506c.362.486.586.779.625.848-.062-.062-.324-.324-.771-.74A9.268,9.268,0,0,1,154.824,102,6.948,6.948,0,0,1,154.438,97.621Zm-9.352-1.357a11.927,11.927,0,0,1,1.033-2.891c.455-.964.995-1.9,1.542-2.853a28.837,28.837,0,0,0,2.737-5.343,8.495,8.495,0,0,0,.316-4.657,11.965,11.965,0,0,0-1.288-3.053c-.339-.509-.563-.864-.64-.995.116.116.393.416.825.871a10.314,10.314,0,0,1,1.8,2.976,8.5,8.5,0,0,1,.185,5.166,23.067,23.067,0,0,1-2.645,5.7,25.583,25.583,0,0,0-2.66,5.359,7.845,7.845,0,0,0-.362,2.467v.285c0,.108.015.193.023.285.023.193.039.378.062.563.077.355.154.7.247,1.033a11.447,11.447,0,0,0,1.511,2.961c.416.571.678.925.732,1-.077-.077-.393-.378-.91-.871a10.3,10.3,0,0,1-2-2.853A7.77,7.77,0,0,1,145.086,96.264Zm-8.851,1.357a17.344,17.344,0,0,1,2.174-4.873,24.769,24.769,0,0,0,2.321-4.526,7.073,7.073,0,0,0,.262-3.948,9.819,9.819,0,0,0-1.095-2.583c-.278-.432-.455-.717-.532-.833.077.077.316.339.694.732a8.689,8.689,0,0,1,1.527,2.529,7.146,7.146,0,0,1,.154,4.372,18.876,18.876,0,0,1-2.244,4.827,21.783,21.783,0,0,0-2.259,4.541,6.527,6.527,0,0,0-.015,3.94,10.106,10.106,0,0,0,1.264,2.506c.362.486.586.779.625.848-.062-.062-.324-.324-.771-.74A8.918,8.918,0,0,1,136.628,102,6.894,6.894,0,0,1,136.235,97.621Zm32.83,23.277a11.256,11.256,0,0,1-3.832.393c-1.75-.039-3.508-.224-5.258-.393a113.64,113.64,0,0,0-13.732-.732c-4.264.116-8.489.655-12.729.979a26.674,26.674,0,0,1-4.642.077,4.974,4.974,0,0,1-2.853-.979c-1.712-1.527-.64-4.3.563-5.775,2.035-2.475,5.258-3.886,8.242-4.85a43.723,43.723,0,0,1,13.315-1.92c1.21,0,2.413.039,3.624.131a37.428,37.428,0,0,1,12.336,2.776c2.544,1.11,5.428,2.776,6.584,5.451C171.517,117.961,171.208,120.181,169.065,120.9Z" transform="translate(-11.948 -15.001)"/><g transform="translate(44.232 150.856)"><path class="a" d="M238.248,194.47H57.483a1.3,1.3,0,0,0,0,2.606h54.326c2.352,5.544,6.978,8.635,15.05,10.108,26.577,6.924,1.488,36.068,13.447,50.163a9.525,9.525,0,0,0,5.721,3.323v.054a14.615,14.615,0,0,0,3.67,0v-.054a9.5,9.5,0,0,0,5.721-3.323c11.959-14.094-13.13-43.239,13.447-50.163,8.073-1.473,12.714-4.564,15.05-10.108H238.24a1.3,1.3,0,0,0,.008-2.606Zm-90.379,60.271c-1.681,0-3.053-2.167-3.053-4.827,0-2.675,1.372-4.834,3.053-4.834s3.053,2.167,3.053,4.834S149.55,254.741,147.869,254.741Z" transform="translate(-56.18 -194.47)"/></g><g class="b" transform="matrix(1, 0, 0, 1, 4.001, 3.997)"><path class="c" d="M131.917,0A131.918,131.918,0,1,1,0,131.918,131.918,131.918,0,0,1,131.917,0Z"/><path class="d" d="M 131.9172668457031 3 C 123.1684417724609 3 114.4259796142578 3.8812255859375 105.9327697753906 5.619232177734375 C 97.65690612792969 7.31268310546875 89.51655578613281 9.839614868164063 81.73776245117188 13.1297607421875 C 74.09954833984375 16.3604736328125 66.73222351074219 20.35935974121094 59.84048461914063 25.01536560058594 C 53.01344299316406 29.62765502929688 46.59352111816406 34.92462158203125 40.75898742675781 40.7591552734375 C 34.92448425292969 46.59368896484375 29.62751770019531 53.01365661621094 25.01527404785156 59.84072875976563 C 20.35929870605469 66.73251342773438 16.36041259765625 74.09983825683594 13.12969970703125 81.73811340332031 C 9.839553833007813 89.51693725585938 7.312652587890625 97.65733337402344 5.619171142578125 105.9332275390625 C 3.881195068359375 114.4264678955078 2.999969482421875 123.1689758300781 2.999969482421875 131.9178314208984 C 2.999969482421875 140.6666870117188 3.881195068359375 149.4091796875 5.619171142578125 157.9024353027344 C 7.312652587890625 166.1783294677734 9.839553833007813 174.3187255859375 13.12969970703125 182.0975494384766 C 16.36041259765625 189.7357940673828 20.35929870605469 197.1031494140625 25.01527404785156 203.9949035644531 C 29.62751770019531 210.8219757080078 34.92448425292969 217.241943359375 40.75898742675781 223.0765075683594 C 46.59352111816406 228.9110412597656 53.01344299316406 234.2080078125 59.84048461914063 238.8202972412109 C 66.73222351074219 243.4762573242188 74.09954833984375 247.4751586914063 81.73776245117188 250.7058715820313 C 89.51655578613281 253.9960479736328 97.65690612792969 256.5229797363281 105.9327697753906 258.2164306640625 C 114.4259796142578 259.9544372558594 123.1684417724609 260.8356628417969 131.9172668457031 260.8356628417969 C 140.6660919189453 260.8356628417969 149.4085540771484 259.9544372558594 157.9017639160156 258.2164306640625 C 166.1775817871094 256.5229797363281 174.3179473876953 253.9960479736328 182.0967407226563 250.7058715820313 C 189.7349853515625 247.4751586914063 197.1022644042969 243.4762573242188 203.9940185546875 238.8202972412109 C 210.821044921875 234.2080078125 217.2409820556641 228.9110412597656 223.0755157470703 223.0765075683594 C 228.9100189208984 217.241943359375 234.2069854736328 210.8219757080078 238.8192291259766 203.9949035644531 C 243.4751892089844 197.1031494140625 247.4740905761719 189.7357940673828 250.7048034667969 182.0975494384766 C 253.9949493408203 174.3187255859375 256.5218505859375 166.1783294677734 258.21533203125 157.9024353027344 C 259.9533081054688 149.4091796875 260.8345031738281 140.6666870117188 260.8345031738281 131.9178314208984 C 260.8345031738281 123.1689758300781 259.9533081054688 114.4264678955078 258.21533203125 105.9332275390625 C 256.5218505859375 97.65733337402344 253.9949493408203 89.51693725585938 250.7048034667969 81.73811340332031 C 247.4740905761719 74.09983825683594 243.4751892089844 66.73251342773438 238.8192291259766 59.84072875976563 C 234.2069854736328 53.01365661621094 228.9100189208984 46.59368896484375 223.0755157470703 40.7591552734375 C 217.2409820556641 34.92462158203125 210.821044921875 29.62765502929688 203.9940185546875 25.01536560058594 C 197.1022644042969 20.35935974121094 189.7349853515625 16.3604736328125 182.0967407226563 13.1297607421875 C 174.3179473876953 9.839614868164063 166.1775817871094 7.31268310546875 157.9017639160156 5.619232177734375 C 149.4085540771484 3.8812255859375 140.6660919189453 3 131.9172668457031 3 M 131.9172668457031 0 C 204.7731323242188 0 263.8345031738281 59.06161499023438 263.8345031738281 131.9178314208984 C 263.8345031738281 204.7740173339844 204.7731323242188 263.8356628417969 131.9172668457031 263.8356628417969 C 59.06137084960938 263.8356628417969 -3.0517578125e-05 204.7740173339844 -3.0517578125e-05 131.9178314208984 C -3.0517578125e-05 59.06161499023438 59.06137084960938 0 131.9172668457031 0 Z"/></g><g transform="translate(60.491 25.303)"><path class="a" d="M80.408,69.588l.655-.987a2.994,2.994,0,0,0,1.411.54,1.852,1.852,0,0,0,1.565-.5,2.151,2.151,0,0,0,.794-1.372,1.526,1.526,0,0,0-.386-1.257,1.456,1.456,0,0,0-1.234-.517,2.6,2.6,0,0,0-1.48.717L81.3,66.6l-.7-.794a6.174,6.174,0,0,0,.887-.918A1.417,1.417,0,0,0,81.741,64a1.371,1.371,0,0,0-.347-.9,1.44,1.44,0,0,0-1.041-.478,1.711,1.711,0,0,0-1.226.5,2.015,2.015,0,0,0-.648,1.041,1.8,1.8,0,0,0,.108,1.133,3.094,3.094,0,0,0,.432.763l-1.033.571c-1.087-1.642-.941-3.084.439-4.31A2.931,2.931,0,0,1,80.5,61.47a2.4,2.4,0,0,1,1.75.786,2.2,2.2,0,0,1,.424,2.29,2.206,2.206,0,0,1,1.4-.177,2.292,2.292,0,0,1,1.3.756,2.534,2.534,0,0,1,.64,2.082,3.5,3.5,0,0,1-1.264,2.2A3.277,3.277,0,0,1,80.408,69.588Z" transform="translate(-77.268 -38.462)"/><path class="a" d="M85.78,56.156,90.7,52.91l.594.9L87.376,56.4l1.557,2.367,1.812-1.2a6.407,6.407,0,0,1,1.719-.856,2.1,2.1,0,0,1,1.434.108,2.689,2.689,0,0,1,1.18,1.01,2.858,2.858,0,0,1,.463,1.257,2.492,2.492,0,0,1-.216,1.326,4.037,4.037,0,0,1-1.519,1.457l-2.968,1.958Zm5.49,6.137,2-1.326a2.254,2.254,0,0,0,.995-1.141,1.474,1.474,0,0,0-.254-1.272,1.566,1.566,0,0,0-.756-.64,1.361,1.361,0,0,0-.925,0,7.828,7.828,0,0,0-1.48.825l-1.342.887Z" transform="translate(-79.217 -36.503)"/><path class="a" d="M100.967,57.529,96.85,49.318l5.867-2.938.486.971-4.8,2.406,1.257,2.514,4.5-2.251.486.964-4.5,2.251,1.4,2.8,4.981-2.5.486.971Z" transform="translate(-81.752 -35.007)"/><path class="a" d="M111.932,52.625l-3.292-8.574,3.2-1.226a8.569,8.569,0,0,1,1.318-.416,2.635,2.635,0,0,1,1.2,0,2.241,2.241,0,0,1,.995.563,3.017,3.017,0,0,1,.732,3.192,3.51,3.51,0,0,1-2.2,1.712l-2.174.833,1.342,3.485Zm-.609-4.935,2.19-.84a2.457,2.457,0,0,0,1.388-1,1.585,1.585,0,0,0,.015-1.326,1.691,1.691,0,0,0-.625-.817,1.352,1.352,0,0,0-.9-.231,5.3,5.3,0,0,0-1.079.324l-2.167.833Z" transform="translate(-84.452 -34.082)"/><path class="a" d="M123.665,48.781l-2.745-8.767,1.149-.355,2.745,8.767Z" transform="translate(-87.264 -33.469)"/><path class="a" d="M126.67,37.935l5.69-1.465.27,1.049L128.1,38.683l2.028,7.841-1.164.3Z" transform="translate(-88.58 -32.738)"/><path class="a" d="M136.99,45.041l1.665-9.684,1.272-.247,5.4,8.3-1.342.262-1.573-2.529-3.724.725-.447,2.922Zm1.85-4.21,3.022-.586-1.419-2.313c-.432-.7-.763-1.288-.995-1.75A11.273,11.273,0,0,1,139.3,38Z" transform="translate(-90.943 -32.427)"/><path class="a" d="M148.78,33.357l1.2-.131.447,4.1,1.735-.193a4.755,4.755,0,0,1,.925-3.238,3.794,3.794,0,0,1,2.683-1.465,3.836,3.836,0,0,1,3.069.941,4.867,4.867,0,0,1,1.534,3.285,5.033,5.033,0,0,1-.771,3.632,3.86,3.86,0,0,1-2.822,1.588,3.72,3.72,0,0,1-2.853-.794,4.777,4.777,0,0,1-1.611-2.884l-1.758.193.432,3.963-1.2.131Zm4.634,4.156a4.111,4.111,0,0,0,1.079,2.6,2.756,2.756,0,0,0,4.163-.455,4.317,4.317,0,0,0,.478-2.845,4.266,4.266,0,0,0-1.064-2.606,2.727,2.727,0,0,0-4.187.47A4.461,4.461,0,0,0,153.414,37.512Z" transform="translate(-93.643 -31.807)"/><path class="a" d="M173.272,40.835l-1.2.039-.123-3.7a8.15,8.15,0,0,1-2.806.7,3.079,3.079,0,0,1-1.689-.393,2.2,2.2,0,0,1-1.01-1.1,5.679,5.679,0,0,1-.308-1.8l-.093-2.7,1.2-.039.085,2.591a2.628,2.628,0,0,0,.609,1.958,1.931,1.931,0,0,0,1.318.432,6.993,6.993,0,0,0,2.645-.663l-.154-4.464,1.2-.039Z" transform="translate(-97.595 -31.637)"/><path class="a" d="M179.345,31.63l1.087.031-.224,7.271,5.05-7.124,1.211.039-.285,9.183L185.1,41l.224-7.255-5.058,7.109-1.2-.039Z" transform="translate(-100.577 -31.63)"/><path class="a" d="M200.005,42.154l1.033-8.034-2.968-.378.139-1.072,7.14.918-.139,1.079-2.984-.386-1.033,8.034Z" transform="translate(-104.93 -31.868)"/><path class="a" d="M208.6,43.423l1.789-9.013,3.362.663a7.828,7.828,0,0,1,1.342.355,2.678,2.678,0,0,1,1.018.64,2.239,2.239,0,0,1,.54,1.01,2.753,2.753,0,0,1,.023,1.28,2.883,2.883,0,0,1-1.11,1.8,3.532,3.532,0,0,1-2.768.278l-2.282-.455-.725,3.662Zm2.12-4.5,2.305.455a2.461,2.461,0,0,0,1.712-.108,1.555,1.555,0,0,0,.717-1.118,1.637,1.637,0,0,0-.093-1.025,1.31,1.31,0,0,0-.64-.678,5.058,5.058,0,0,0-1.087-.3L211.36,35.7Z" transform="translate(-107.341 -32.267)"/><path class="a" d="M218.05,45.6l5.783-7.942,1.249.339,1.164,9.838-1.318-.362-.293-2.961-3.662-1-1.7,2.421Zm3.524-2.945,2.968.81L224.3,40.76c-.077-.825-.116-1.488-.123-2a12.5,12.5,0,0,1-.933,1.565Z" transform="translate(-109.505 -33.011)"/><path class="a" d="M234.8,40.97l5.174,1.943L237.125,50.5l.763.285-1.133,3.022-1-.378.756-2-5.621-2.1-.756,2-1-.378,1.133-3.022.663.247q1.619-1.18,3.4-5.945Zm3.67,2.537-2.961-1.11-.162.439c-.278.732-.717,1.7-1.318,2.93a10.731,10.731,0,0,1-1.935,2.845l3.924,1.473Z" transform="translate(-112.042 -33.769)"/><path class="a" d="M246.73,45.51,247.7,46,244.417,52.5l7.595-4.318,1.079.547-4.14,8.2-.972-.493,3.277-6.477-7.595,4.295-1.072-.54Z" transform="translate(-115.124 -34.808)"/><path class="a" d="M259.066,52.26l.987.686L255.4,59.585l3.878,2.714,4.649-6.638.987.694-4.649,6.638.679.478-2.089,2.976-.871-.609,1.465-2.089L253.8,59.785Z" transform="translate(-117.691 -36.354)"/><path class="a" d="M264.37,68.034l6.23-6.754.887.817-6.23,6.754Z" transform="translate(-120.111 -38.419)"/><path class="a" d="M268.29,71.474l6.862-6.114.8.894-6.862,6.114Zm6.507-7.348.956-.856.771.871-.956.856Zm1.542,1.719.956-.856.771.871-.956.856Z" transform="translate(-121.009 -38.875)"/></g><g transform="translate(81.68 227.256)"><path class="a" d="M104.75,304.485l4.009-8.273-3.184-1.542.54-1.11,7.656,3.709-.54,1.11-3.192-1.55L106.03,305.1Z" transform="translate(-104.75 -293.56)"/><path class="a" d="M114.54,309.179l3.362-9.869,3.809,1.3a5.134,5.134,0,0,1,1.766.933,2.6,2.6,0,0,1,.74,2.737,2.284,2.284,0,0,1-.763,1.072,2.648,2.648,0,0,1-1.372.54,2.783,2.783,0,0,1,1.11,1.38,2.472,2.472,0,0,1-.015,1.665,2.925,2.925,0,0,1-.74,1.187,2.633,2.633,0,0,1-1.056.663,3.237,3.237,0,0,1-1.28.108,7.005,7.005,0,0,1-1.7-.393Zm1.742-.709,2.529.863a5.555,5.555,0,0,0,.933.262,2.344,2.344,0,0,0,.871-.008,1.515,1.515,0,0,0,.7-.37,1.762,1.762,0,0,0,.486-.763,1.717,1.717,0,0,0,.039-1.056,1.624,1.624,0,0,0-.617-.848,5.222,5.222,0,0,0-1.434-.671l-2.352-.8Zm1.55-4.557,2.2.748a5.6,5.6,0,0,0,1.318.324,1.53,1.53,0,0,0,.941-.231,1.468,1.468,0,0,0,.555-.771,1.669,1.669,0,0,0,.054-.948,1.293,1.293,0,0,0-.517-.748,6.369,6.369,0,0,0-1.5-.663l-2.028-.694Z" transform="translate(-106.992 -294.877)"/><path class="a" d="M129.416,308.788a5.571,5.571,0,0,1,2.3-3.647,4.98,4.98,0,0,1,3.94-.617,5.217,5.217,0,0,1,2.46,1.264,4.507,4.507,0,0,1,1.349,2.275,6.112,6.112,0,0,1-.008,2.868,5.924,5.924,0,0,1-1.272,2.621,4.394,4.394,0,0,1-2.236,1.434,5.539,5.539,0,0,1-2.683.054,5.166,5.166,0,0,1-2.483-1.3,4.623,4.623,0,0,1-1.334-2.29A5.574,5.574,0,0,1,129.416,308.788Zm1.419.347a4.1,4.1,0,0,0,.362,3.123,3.713,3.713,0,0,0,5.127,1.149,4.356,4.356,0,0,0,1.7-2.807,5.281,5.281,0,0,0,.062-2.267,3.319,3.319,0,0,0-.941-1.719,3.612,3.612,0,0,0-1.75-.933,3.685,3.685,0,0,0-2.753.409A4.441,4.441,0,0,0,130.835,309.135Z" transform="translate(-110.365 -296.036)"/><path class="a" d="M146.923,306.74l6.877.933-.162,1.218-5.467-.74-1.241,9.114-1.411-.193Z" transform="translate(-114.086 -296.578)"/><path class="a" d="M156.737,313.458a5.566,5.566,0,0,1,1.681-3.971,4.956,4.956,0,0,1,3.786-1.241,5.245,5.245,0,0,1,2.629.856,4.576,4.576,0,0,1,1.7,2.028,6.173,6.173,0,0,1,.455,2.83,5.9,5.9,0,0,1-.833,2.791,4.408,4.408,0,0,1-1.982,1.773,5.526,5.526,0,0,1-2.645.486,5.157,5.157,0,0,1-2.66-.879,4.662,4.662,0,0,1-1.689-2.051A5.659,5.659,0,0,1,156.737,313.458Zm1.465.116a4.114,4.114,0,0,0,.856,3.03,3.709,3.709,0,0,0,5.243.308,4.375,4.375,0,0,0,1.226-3.038,5.072,5.072,0,0,0-.308-2.244,3.344,3.344,0,0,0-1.2-1.55,3.6,3.6,0,0,0-1.881-.64,3.694,3.694,0,0,0-2.652.848A4.4,4.4,0,0,0,158.2,313.574Z" transform="translate(-116.651 -296.92)"/><path class="a" d="M181.086,319.082l-.686-10.4,2.136-.139,3.022,7.2c.278.671.486,1.172.609,1.5.1-.385.247-.956.463-1.7l2.089-7.41,1.9-.123.686,10.4-1.365.092-.578-8.7-2.537,8.913-1.28.085-3.685-8.651.586,8.859Z" transform="translate(-122.073 -296.869)"/><path class="a" d="M199.386,317.644l-1.4-10.332,1.411-.193,1.4,10.332Z" transform="translate(-126.1 -296.665)"/><path class="a" d="M213.11,311.287l1.457.054a4.6,4.6,0,0,1-1.056,2.86,4.5,4.5,0,0,1-2.6,1.442,5.227,5.227,0,0,1-2.9-.108,4.3,4.3,0,0,1-2.02-1.619,6.879,6.879,0,0,1-1.118-2.621,6.057,6.057,0,0,1,.054-2.914,4.337,4.337,0,0,1,1.419-2.174,5.463,5.463,0,0,1,2.421-1.141,4.456,4.456,0,0,1,2.814.239,4.124,4.124,0,0,1,1.951,1.889l-1.3.594a3.172,3.172,0,0,0-1.4-1.4,2.972,2.972,0,0,0-1.858-.154,3.547,3.547,0,0,0-1.912.979,3.081,3.081,0,0,0-.833,1.75,5.974,5.974,0,0,0,.069,2.028,6.177,6.177,0,0,0,.856,2.2,2.9,2.9,0,0,0,1.511,1.2,3.547,3.547,0,0,0,1.881.116,3.112,3.112,0,0,0,1.843-1.064A3.268,3.268,0,0,0,213.11,311.287Z" transform="translate(-127.643 -296.167)"/><path class="a" d="M223.545,312.007l-2.675-8.8-3.385,1.025-.355-1.18,8.142-2.475.355,1.18-3.4,1.033,2.675,8.8Z" transform="translate(-130.483 -295.167)"/><path class="a" d="M233.493,309.392l-.293-11.211,1.411-.6,8.127,7.872-1.488.632-2.39-2.413-4.133,1.758.154,3.369Zm1.172-5.158,3.346-1.426-2.159-2.221q-.983-1.006-1.55-1.689a12.948,12.948,0,0,1,.247,2.059Z" transform="translate(-134.163 -294.48)"/></g><g transform="translate(28.611 119.523)"><path class="a" d="M50.207,175.442c0,1.095,0,3.477.547,4.572,0,.524,1.126,0,1.126,1.095-2.382.709-4.765-.031-7.178,0,0,0,0-1.095.578-1.095H45.8a126.161,126.161,0,0,0,.578-15.043v-5.505c0-1.642.517-2.737,0-3.84H41.425c-.031,5.127-.547,10.247-.547,15.4v5.505c0,.547-.031,1.48-.031,2.275,0,1.095,1.48.933,1.126,2.113-.247.794-3.4.686-4.958.386-.547-.108-.517-.386-.517-.9,0-.578.517-.578,1.095-1.095V164.424c0-2.768.524-6.053,0-9.368-.578,0-1.673,0-1.673-.524.578-1.095,2.19-.578,3.285-.578H50.77c1.126,0,.547,1.673-.547,1.673v19.815Z" transform="translate(-35.92 -153.832)"/><path class="a" d="M69.357,156.447c-.547-.3-.547-.3-1.126-.578a9.135,9.135,0,0,0-3.894.578c-.578.524-.493,1.372-.493,2.629,0,1.565-.085,2.382-.085,3.477,0,1.7.578,2.822,0,3.948.578.524,2.244.524,3.339.524,0-.524,0-1.642.578-1.642.547,0,.547,0,1.126.547-.578,1.095.547,4.5-.578,4.5,0,0-1.126-.578-1.126-1.126v-.578H64.33c-.578,1.7-.162,4.025-.162,5.675,0,1.7.162,3.863.162,4.958a12.447,12.447,0,0,0,4.464.547c1.126-.547,0-2.221,1.126-2.768,1.126,0,1.126,1.642,1.126,2.768,0,.578-.578,1.126-1.126,1.7H67.1a49.37,49.37,0,0,1-8.928-.578v-1.126h2.244c.578-3.346,0-6.083,0-9.484V156.431H58.17v-1.126c2.244-.578,4.464-.578,6.716-1.126h5.59a1.892,1.892,0,0,1,.578,1.126c0,1.126,1.126,3.346-1.126,3.346C69.357,158.1,69.936,156.971,69.357,156.447Z" transform="translate(-41.015 -153.912)"/><path class="a" d="M84.667,181.208c-2.876,0-4.6.578-6.908,0a1.882,1.882,0,0,1-.6-1.149c.6-.578.6-.578,1.727-.578.6-.547.216-1.92.216-2.768-.031-3.755.139-6.492.139-9.4,0-1.126.139-2.575,0-4.41-.108-1.257.031-2,0-4.356,0-.825.162-1.588-.386-1.812-.709-.3-1.041.054-1.642-.493-1.126-.6-.216-1.149.386-1.7a45.383,45.383,0,0,1,8.2-.355c.578,0,.332-.139,1.18,0,2.244.355,4,3.454,4.58,6.33a11.231,11.231,0,0,1-.578,4.6c-.547,1.727-2.275,2.876-3.454,4a8.084,8.084,0,0,1-4,.6.582.582,0,0,0-.578.578c-.031.493,0,1.727,0,2.275,0,2.305-.6,4.634,0,6.908C84.667,179.481,85.793,180.059,84.667,181.208ZM82.94,167.4a2.076,2.076,0,0,0,2.221.355,5.767,5.767,0,0,0,2.359-3.207,9.091,9.091,0,0,0,.409-3.346,11.68,11.68,0,0,0-.956-4.688c-.6,0-1.18-.6-2.3-.6H82.94c-.6,2.876,0,5.783,0,8.628Z" transform="translate(-45.253 -153.9)"/><path class="a" d="M118.874,159.935v8.026l-.216,2.606.216,2.575v6.6c1.095,0,1.673,1.673.547,1.673h-10.74a9.577,9.577,0,0,1-2.136.054,50.01,50.01,0,0,0-6.931.3c-.6-.547-1.018-.547-.74-1.642a9.539,9.539,0,0,0,.193-2.328,86.361,86.361,0,0,0,.054-8.82l.247-1.426c0-1.7.247-3.4.247-5.066a19.5,19.5,0,0,0-.825-5.729c0-.547-.547-.547-1.149-1.095v-1.149h.6c1.673,0,3.477-.439,5.258-.216.547.054.439.108.439.771-.547,1.149-1.095,1.149-1.095,1.7,0,2.19-.054,4.356-.108,6.492-.031.987.085,1.974.054,2.961-.031,1.18-.216,2.328-.216,3.508-.054,2.961-.031,6,.193,9.237,0,.547-.031.524.6.547.578.031.547,0,1.095,0,0,0,2.359.031,3.069,0,.332-3.038-.108-6-.108-8.551V156.08c-.578-.524-1.095-.524-1.095-1.095,0-.524-.031-.794.524-.9,1.565-.3,4.356-.409,4.6.386.355,1.18-1.126,1.018-1.126,2.113,0,.794.031,1.727.031,2.274v1.974l.216,3.531c0,1.781-.439,3.562-.355,5.343.054.879.355,1.781.409,2.683.139,2.467.278,4.935.278,7.371h4.41c.517-1.095,0-2.19,0-3.84v-5.505c0-1.234.27-2.521.27-3.809-.031-1.588-.332-3.177-.386-4.711a29.487,29.487,0,0,0-.463-6.523h-.517c-.578,0-.578-1.095-.578-1.095,2.413.031,4.518-.709,6.908,0,0,1.095-1.126.578-1.126,1.095C118.874,156.458,118.874,158.841,118.874,159.935Z" transform="translate(-50.053 -153.838)"/><path class="a" d="M138.763,168.948c-1.095,0-2.853-.578-4.549-.578-.6.578-.6,1.727-.6,2.961a32.038,32.038,0,0,0-.632,8.08c.632.524,1.234,0,1.75.524a8.477,8.477,0,0,1-.085,1.149c-1.75,1.2-3.4-.031-5.073.6l-1.2-1.149a2.933,2.933,0,0,1,1.727-1.126c.6,0,.6-.578.6-1.18.547-3.508,1.126-8.659,1.7-12.737a10.265,10.265,0,0,1,1.2-4.6,17.945,17.945,0,0,1,2.853-5.783s1.2-1.234,2.305-.6a5.727,5.727,0,0,1,2.413,4.056,9.352,9.352,0,0,1,.879,3.1c.547,4.549.825,9.669,1.342,14.827V180c0,.524,1.2,1.149,0,1.727l-.709-.162c-1.149,0-2.136.162-3.315.162-.6.054-1.534.3-1.534-.216,0-.6.933-2.113,1.534-2.113A57.474,57.474,0,0,0,138.763,168.948Zm-4.032-5.174c0,.524-.524,2.275-.524,2.93a15.591,15.591,0,0,0,4.549.517v-3.454a19.8,19.8,0,0,0-1.095-5.806.574.574,0,0,0-.6-.578l-.6.578C135.911,159.665,135.309,161.469,134.731,163.774Z" transform="translate(-57.089 -153.945)"/><path class="a" d="M181.927,175.442c0,1.095,0,3.477.547,4.572,0,.524,1.126,0,1.126,1.095-2.382.709-4.765-.031-7.178,0,0,0,0-1.095.578-1.095h.524a126.166,126.166,0,0,0,.578-15.043v-5.505c0-1.642.517-2.737,0-3.84h-4.958c-.031,5.127-.547,10.247-.547,15.4v5.505c0,.547-.031,1.48-.031,2.275,0,1.095,1.48.933,1.126,2.113-.247.794-3.4.686-4.958.386-.547-.108-.517-.386-.517-.9,0-.578.517-.578,1.095-1.095V164.424c0-2.768.524-6.053,0-9.368-.578,0-1.673,0-1.673-.524.578-1.095,2.19-.578,3.285-.578H182.49c1.126,0,.547,1.673-.547,1.673v19.815Z" transform="translate(-66.082 -153.832)"/><path class="a" d="M201.077,156.447c-.547-.3-.547-.3-1.126-.578a9.135,9.135,0,0,0-3.894.578c-.578.524-.493,1.372-.493,2.629,0,1.565-.085,2.382-.085,3.477,0,1.7.578,2.822,0,3.948.578.524,2.244.524,3.346.524,0-.524,0-1.642.578-1.642.547,0,.547,0,1.126.547-.578,1.095.547,4.5-.578,4.5,0,0-1.126-.578-1.126-1.126v-.578h-2.768c-.578,1.7-.162,4.025-.162,5.675,0,1.7.162,3.863.162,4.958a12.447,12.447,0,0,0,4.464.547c1.126-.547,0-2.221,1.126-2.768,1.126,0,1.126,1.642,1.126,2.768,0,.578-.578,1.126-1.126,1.7h-2.822a49.5,49.5,0,0,1-8.936-.578v-1.126h2.244c.578-3.346,0-6.083,0-9.484V156.431H189.89v-1.126c2.244-.578,4.464-.578,6.716-1.126h5.59a1.892,1.892,0,0,1,.578,1.126c0,1.126,1.126,3.346-1.126,3.346C201.077,158.1,201.648,156.971,201.077,156.447Z" transform="translate(-71.176 -153.912)"/><path class="a" d="M218.923,162.067c-.547,1.126-1.126,2.221-1.673,3.315,0,.578,0,.578.547.578.578.547,1.642,1.095,2.221,1.642,1.673,2.221,1.673,5.559,2.221,8.327,0,1.126-.547,2.19,0,2.768,0,.547,1.257,1.041,1.257,1.619a2.26,2.26,0,0,1-.385,1.072c-1.673,0-4,.085-5.1.085a.893.893,0,0,1-.216-1.095l1.126-1.126c.517-1.126,0-2.19,0-3.315v-3.894c0-1.642-.547-3.894-1.673-4.441a3.614,3.614,0,0,0-3.346,0c-1.126,1.126-.547,4.441-.547,6.631,0,1.126-.578,1.7-.578,2.822v2.19c1.126.547,1.7,1.642.578,2.221-1.642-.578-2.768.547-4.41,0-.578-.578-.578-.578-.578-1.095.578-.578,1.095-.578,1.095-1.126v-7.209s.054-.031.054-.6l-.054-.517a21.168,21.168,0,0,0,.578-2.768,54.87,54.87,0,0,0-.578-9.977v-1.642c-.517,0-1.095,0-1.095-.578-.547,0-.439-1.2-.054-1.588s1.041-.054,2.167-.054,4-.547,4,1.095c0,.547-.578.547-1.126,1.126,0,2.19.547,3.894.547,6.083,0,.578-.547,1.673,0,2.221,2.221-.547,3.346-2.768,3.894-4.989,0-1.126.578-2.19.578-3.315H217.25c0-.578-.578-.578-.578-1.126.578-1.095,2.244-.547,3.338-1.095,1.673.547,1.095,2.221,0,2.221A17.173,17.173,0,0,1,218.923,162.067Z" transform="translate(-75.321 -153.911)"/><path class="a" d="M239.666,168.948c-1.095,0-2.853-.578-4.549-.578-.6.578-.6,1.727-.6,2.961a32.04,32.04,0,0,0-.632,8.08c.632.524,1.234,0,1.75.524a8.478,8.478,0,0,1-.085,1.149c-1.75,1.2-3.4-.031-5.066.6l-1.2-1.149a2.933,2.933,0,0,1,1.727-1.126c.6,0,.6-.578.6-1.18.547-3.508,1.126-8.659,1.7-12.737a10.265,10.265,0,0,1,1.2-4.6,17.945,17.945,0,0,1,2.853-5.783s1.2-1.234,2.3-.6a5.727,5.727,0,0,1,2.413,4.056,9.172,9.172,0,0,1,.879,3.1c.547,4.549.825,9.669,1.342,14.827V180c0,.524,1.2,1.149,0,1.727l-.709-.162c-1.149,0-2.136.162-3.315.162-.6.054-1.534.3-1.534-.216,0-.6.933-2.113,1.534-2.113A57.47,57.47,0,0,0,239.666,168.948Zm-4.032-5.174c0,.524-.517,2.275-.517,2.93a15.591,15.591,0,0,0,4.549.517v-3.454a19.8,19.8,0,0,0-1.095-5.806.574.574,0,0,0-.6-.578l-.6.578C236.813,159.665,236.211,161.469,235.633,163.774Z" transform="translate(-80.196 -153.945)"/><path class="a" d="M259.667,181.208c-2.876,0-4.6.578-6.908,0a1.882,1.882,0,0,1-.6-1.149c.6-.578.6-.578,1.727-.578.6-.547.216-1.92.216-2.768-.031-3.755.139-6.492.139-9.4,0-1.126.139-2.575,0-4.41-.108-1.257.031-2,0-4.356,0-.825.162-1.588-.386-1.812-.709-.3-1.041.054-1.642-.493-1.126-.6-.216-1.149.386-1.7a45.383,45.383,0,0,1,8.2-.355c.578,0,.332-.139,1.18,0,2.244.355,4,3.454,4.572,6.33a11.232,11.232,0,0,1-.578,4.6c-.547,1.727-2.275,2.876-3.454,4a8.085,8.085,0,0,1-4,.6.582.582,0,0,0-.578.578c-.031.493,0,1.727,0,2.275,0,2.305-.6,4.634,0,6.908C259.667,179.481,260.793,180.059,259.667,181.208ZM257.948,167.4a2.076,2.076,0,0,0,2.221.355,5.767,5.767,0,0,0,2.359-3.207,9.091,9.091,0,0,0,.409-3.346,11.68,11.68,0,0,0-.956-4.688c-.6,0-1.18-.6-2.305-.6h-1.727c-.6,2.876,0,5.783,0,8.628Z" transform="translate(-85.325 -153.9)"/><path class="a" d="M286.826,160.963v9.453c0,2.791.578,6.168.578,8.928.547.547,1.126.547,1.126,1.126V181.6s-.162-.493-.547-.108a1.848,1.848,0,0,1-.848.139c-.578,0-.848-.031-1.974-.031-.578,0-.794.031-1.318.031-.547-.547-.332-.6.216-1.149,0-.578,1.095-.578,1.095-1.126.547-4.464,0-9.453,0-13.948a.566.566,0,0,0-.578-.578c-1.642-.547-3.863,0-5.559,0-1.126,1.126-1.126,2.244-1.126,3.948v7.8c.578,1.126,0,1.642.578,2.768.547,0,1.673,1.126.547,1.673-2.244,0-3.315.578-5.559,0,0,0-.578-1.126,0-1.673h1.126V160.377c-.578-1.126,0-2.8-.578-3.917a1.751,1.751,0,0,1-1.126-.578.79.79,0,0,1,0-1.126h2.244c1.126,0,2.768-.547,3.894,0a1.21,1.21,0,0,1,1.126,1.126c0,.578-1.126.578-1.673.578-.578.547,0,1.126,0,2.244s-.578,2.8,0,3.894a13.81,13.81,0,0,0,6.685,0,22.219,22.219,0,0,0-.578-6.137c-.517-.578-1.642,0-2.19-.578v-1.126a5.173,5.173,0,0,1,3.315-.547,8.819,8.819,0,0,0,1.7,0c1.126.547,1.126,2.244,0,2.244A10.874,10.874,0,0,0,286.826,160.963Z" transform="translate(-90.124 -153.902)"/><path class="a" d="M307.4,157.233c0,2.961.031,5.127-.193,7.587-.108,1.318.193,8.99.193,5.042v10a2.235,2.235,0,0,1,1.75.547c-.6,1.2-1.149,1.2-2.359,1.2-1.126-.6-3.346-.162-4.5-.162-.578,0-.493-.439-.493-1.041,0-.547,1.18-.547,1.18-1.126a8.1,8.1,0,0,0,.547-3.562c0-2.136.085-5.343-.054-8.134-1.18-.6-1.92-.3-3.015.547-.987.771-1.126,2.244-1.126,3.894v3.894c0,1.126-.524,2.19,0,3.315l1.126,1.126a.894.894,0,0,1-.216,1.095c-1.095,0-3.67-.085-5.343-.085a2.22,2.22,0,0,1-.385-1.072c0-.578,1.257-1.072,1.257-1.619.547-.578.277-2.19.277-3.315.278-2.768.278-5.559,1.673-7.78a11.8,11.8,0,0,1,1.041-.879,8.055,8.055,0,0,1-2.275-3.4,9.246,9.246,0,0,1,0-4.988c.825-3.4,5.621-4.634,9.183-4.025.547,0,.74.332,1.318.332,1.781,0,2.544.031,2.544,1.75C309.539,156.986,308.553,157.233,307.4,157.233Zm-3.778,8.165.216-1.234c.162-3.123.247-5.559.247-8.057a10.18,10.18,0,0,0-2.876.193,3.551,3.551,0,0,0-1.449,2.629,10.775,10.775,0,0,0,0,2.66c.108.9,1.01,3.177,2.082,3.863C302.5,165.429,303.132,165.429,303.626,165.4Z" transform="translate(-95.135 -153.904)"/></g><ellipse class="a" cx="4.719" cy="4.719" rx="4.719" ry="4.719" transform="translate(195.297 223.663)"/><ellipse class="a" cx="4.719" cy="4.719" rx="4.719" ry="4.719" transform="translate(62.752 223.663)"/></g></svg>