<svg xmlns="http://www.w3.org/2000/svg" viewBox="0 0 127.998 127.997"><defs><style>.a,.d{fill:#fff;}.b{fill:none;}.c,.d{stroke:none;}</style></defs><g transform="translate(0 0)"><g transform="translate(55.281 43.373)"><path class="a" d="M152.738,124.977c-.135-.064-.8-.247-.935-.071-.09.12.221.254.348.329.411.247.879.367,1.309.587a7.623,7.623,0,0,0,.868.46C154.35,125.961,153.793,125.467,152.738,124.977Z" transform="translate(-151.787 -123.005)"/><path class="a" d="M160.134,122.341c-.108-.045-1.145-.393-1.227-.209-.052.12,1.006.651,1.133.707.52.254,1.014.524,1.511.812a11.334,11.334,0,0,0,1.137.658A8.653,8.653,0,0,0,160.134,122.341Z" transform="translate(-156.242 -121.282)"/><path class="a" d="M169.752,120.669a3.55,3.55,0,0,0-1-.277c-.09-.011-.483-.09-.411.037.082.146.494.31.64.393.277.153.565.277.842.423.5.266.98.565,1.466.842a12.213,12.213,0,0,0,1.279.733C172.756,122.63,170.7,121.088,169.752,120.669Z" transform="translate(-162.146 -120.205)"/><path class="a" d="M180.936,120.349a3.536,3.536,0,0,0-.707-.284c-.09-.026-.52-.172-.606-.094s.849.677.961.752c.5.3.991.6,1.481.931a12.075,12.075,0,0,0,1.178.808C183.423,122.306,181.938,120.907,180.936,120.349Z" transform="translate(-169.208 -119.949)"/><path class="a" d="M192.245,122.814c-.2-.146-.483-.367-.752-.284-.228.064.045.266.183.367.419.284.834.587,1.234.913.064.056.67.613.748.64h.007C193.82,124.341,192.787,123.2,192.245,122.814Z" transform="translate(-176.586 -121.553)"/></g><path class="a" d="M144.511,97.9H119.7l.939-21.232a7.4,7.4,0,0,0-7.608-7.156H88.3a7.4,7.4,0,0,0-7.608,7.156L81.627,97.9H56.812a.632.632,0,1,0,0,1.264h87.695a.634.634,0,0,0,.632-.632A.626.626,0,0,0,144.511,97.9ZM103.85,83.148a8.415,8.415,0,0,1,1.055-2.364,12.015,12.015,0,0,0,1.126-2.2,3.432,3.432,0,0,0,.127-1.915,4.763,4.763,0,0,0-.531-1.253c-.135-.209-.221-.348-.258-.4.037.037.157.165.34.355a4.4,4.4,0,0,1,.733,1.227,3.5,3.5,0,0,1,.075,2.121,9.156,9.156,0,0,1-1.089,2.342,10.569,10.569,0,0,0-1.1,2.2,3.2,3.2,0,0,0-.007,1.911,4.9,4.9,0,0,0,.613,1.216c.176.236.284.378.3.411-.03-.03-.157-.157-.374-.359a4.5,4.5,0,0,1-.83-1.171A3.371,3.371,0,0,1,103.85,83.148Zm-4.537-.658a5.787,5.787,0,0,1,.5-1.4c.221-.468.483-.924.748-1.384a13.99,13.99,0,0,0,1.328-2.592,4.121,4.121,0,0,0,.153-2.259,5.8,5.8,0,0,0-.625-1.481c-.165-.247-.273-.419-.31-.483.056.056.191.2.4.423a5,5,0,0,1,.872,1.444,4.125,4.125,0,0,1,.09,2.506,11.19,11.19,0,0,1-1.283,2.764,12.412,12.412,0,0,0-1.29,2.6,3.806,3.806,0,0,0-.176,1.2v.138c0,.052.007.094.011.138.011.094.019.183.03.273.037.172.075.34.12.5a5.553,5.553,0,0,0,.733,1.436c.2.277.329.449.355.486-.037-.037-.191-.183-.441-.423a5,5,0,0,1-.973-1.384A3.769,3.769,0,0,1,99.313,82.49Zm-4.294.658a8.415,8.415,0,0,1,1.055-2.364,12.017,12.017,0,0,0,1.126-2.2,3.432,3.432,0,0,0,.127-1.915A4.763,4.763,0,0,0,96.8,75.42c-.135-.209-.221-.348-.258-.4.037.037.153.165.337.355a4.216,4.216,0,0,1,.741,1.227,3.467,3.467,0,0,1,.075,2.121A9.156,9.156,0,0,1,96.6,81.061a10.568,10.568,0,0,0-1.1,2.2,3.167,3.167,0,0,0-.007,1.911,4.9,4.9,0,0,0,.613,1.216c.176.236.284.378.3.411-.03-.03-.157-.157-.374-.359a4.326,4.326,0,0,1-.83-1.171A3.344,3.344,0,0,1,95.019,83.148Zm15.928,11.293a5.461,5.461,0,0,1-1.859.191c-.849-.019-1.7-.108-2.551-.191a55.131,55.131,0,0,0-6.662-.355c-2.069.056-4.118.318-6.176.475a12.94,12.94,0,0,1-2.252.037,2.413,2.413,0,0,1-1.384-.475c-.83-.741-.31-2.087.273-2.8a8.455,8.455,0,0,1,4-2.353,21.212,21.212,0,0,1,6.46-.931c.587,0,1.171.019,1.758.064a18.159,18.159,0,0,1,5.985,1.347,5.842,5.842,0,0,1,3.194,2.645A1.608,1.608,0,0,1,110.946,94.441Z" transform="translate(-36.662 -45.004)"/><g transform="translate(19.518 71.248)"><g transform="translate(0)"><path class="a" d="M144.511,194.47h-87.7a.632.632,0,1,0,0,1.264H83.169c1.141,2.689,3.385,4.189,7.3,4.9,12.894,3.359.722,17.5,6.524,24.336a4.621,4.621,0,0,0,2.776,1.612v.026a7.093,7.093,0,0,0,1.781,0v-.026a4.611,4.611,0,0,0,2.776-1.612c5.8-6.838-6.37-20.977,6.524-24.336,3.916-.714,6.168-2.214,7.3-4.9h26.356a.632.632,0,0,0,0-1.264Zm-43.847,29.24c-.815,0-1.481-1.051-1.481-2.342s.666-2.345,1.481-2.345,1.481,1.051,1.481,2.345S101.479,223.71,100.663,223.71Z" transform="translate(-56.18 -194.47)"/></g></g><g class="b" transform="matrix(1, 0, 0, 1, 0, 0)"><path class="c" d="M64,0A64,64,0,1,1,0,64,64,64,0,0,1,64,0Z"/><path class="d" d="M 63.99937438964844 3 C 55.76319122314453 3 47.77495574951172 4.612380981445313 40.25657653808594 7.7923583984375 C 36.64275360107422 9.320877075195313 33.15699768066406 11.21289825439453 29.89613342285156 13.41587829589844 C 26.66545104980469 15.59845733642578 23.62737274169922 18.10509490966797 20.86629486083984 20.86615753173828 C 18.10519409179688 23.62723541259766 15.59853363037109 26.66527557373047 13.41595458984375 29.89591979980469 C 11.21295166015625 33.15677642822266 9.320915222167969 36.64250183105469 7.792396545410156 40.25630187988281 C 4.612396240234375 47.77459716796875 2.999992370605469 55.76275634765625 2.999992370605469 63.99887847900391 C 2.999992370605469 72.23500061035156 4.612396240234375 80.22315979003906 7.792396545410156 87.741455078125 C 9.320915222167969 91.35525512695313 11.21295166015625 94.84097290039063 13.41595458984375 98.10183715820313 C 15.59853363037109 101.3324737548828 18.10519409179688 104.3705139160156 20.86629486083984 107.1315994262695 C 23.62737274169922 109.8926544189453 26.66545104980469 112.399299621582 29.89613342285156 114.5818786621094 C 33.15699768066406 116.7848587036133 36.64275360107422 118.6768798828125 40.25657653808594 120.2053985595703 C 47.77495574951172 123.3853759765625 55.76319122314453 124.9977569580078 63.99937438964844 124.9977569580078 C 72.23554992675781 124.9977569580078 80.22379302978516 123.3853759765625 87.74215698242188 120.2053985595703 C 91.35597229003906 118.6768798828125 94.84173583984375 116.7848587036133 98.10261535644531 114.5818786621094 C 101.3332748413086 112.399299621582 104.3713531494141 109.8926544189453 107.132453918457 107.1315994262695 C 109.8935317993164 104.3705139160156 112.4001922607422 101.3324737548828 114.5827941894531 98.10183715820313 C 116.7857971191406 94.84097290039063 118.6778335571289 91.35525512695313 120.2063522338867 87.741455078125 C 123.3863525390625 80.22315979003906 124.9987564086914 72.23500061035156 124.9987564086914 63.99887847900391 C 124.9987564086914 55.76275634765625 123.3863525390625 47.77459716796875 120.2063522338867 40.25630187988281 C 118.6778335571289 36.64250183105469 116.7857971191406 33.15677642822266 114.5827941894531 29.89591979980469 C 112.4001922607422 26.66527557373047 109.8935317993164 23.62723541259766 107.132453918457 20.86615753173828 C 104.3713531494141 18.10509490966797 101.3332748413086 15.59845733642578 98.10261535644531 13.41587829589844 C 94.84173583984375 11.21289825439453 91.35597229003906 9.320877075195313 87.74215698242188 7.7923583984375 C 80.22379302978516 4.612380981445313 72.23554992675781 3 63.99937438964844 3 M 63.99937438964844 0 C 99.34523010253906 0 127.9987564086914 28.65328216552734 127.9987564086914 63.99887847900391 C 127.9987564086914 99.344482421875 99.34523010253906 127.9977569580078 63.99937438964844 127.9977569580078 C 28.65349578857422 127.9977569580078 -7.62939453125e-06 99.344482421875 -7.62939453125e-06 63.99887847900391 C -7.62939453125e-06 28.65328216552734 28.65349578857422 0 63.99937438964844 0 Z"/></g><g transform="translate(27.406 10.336)"><path class="a" d="M78.791,65.408l.318-.479a1.453,1.453,0,0,0,.685.262.9.9,0,0,0,.759-.243,1.044,1.044,0,0,0,.385-.666.74.74,0,0,0-.187-.61.707.707,0,0,0-.6-.251,1.259,1.259,0,0,0-.718.348l-.209.187-.34-.385a3,3,0,0,0,.43-.445.688.688,0,0,0,.123-.43.665.665,0,0,0-.168-.438.7.7,0,0,0-.5-.232.83.83,0,0,0-.595.243.978.978,0,0,0-.314.5.871.871,0,0,0,.052.55,1.5,1.5,0,0,0,.209.37l-.5.277a1.442,1.442,0,0,1,.213-2.091,1.422,1.422,0,0,1,1.006-.411,1.166,1.166,0,0,1,.849.382,1.069,1.069,0,0,1,.206,1.111,1.07,1.07,0,0,1,.677-.086,1.112,1.112,0,0,1,.632.367,1.229,1.229,0,0,1,.31,1.01,1.7,1.7,0,0,1-.613,1.066A1.59,1.59,0,0,1,78.791,65.408Z" transform="translate(-77.268 -50.307)"/><path class="a" d="M85.78,54.485l2.387-1.575.288.438-1.9,1.253.756,1.148.879-.58a3.108,3.108,0,0,1,.834-.415,1.019,1.019,0,0,1,.7.052,1.3,1.3,0,0,1,.572.49,1.387,1.387,0,0,1,.224.61,1.209,1.209,0,0,1-.1.643,1.958,1.958,0,0,1-.737.707l-1.44.95Zm2.663,2.978.973-.643a1.094,1.094,0,0,0,.483-.554.715.715,0,0,0-.123-.617.76.76,0,0,0-.367-.31.66.66,0,0,0-.449,0,3.8,3.8,0,0,0-.718.4l-.651.43Z" transform="translate(-82.596 -44.95)"/><path class="a" d="M98.847,51.789l-2-3.984L99.7,46.38l.236.471-2.327,1.167.61,1.219,2.181-1.092.236.468-2.181,1.092.681,1.358,2.416-1.212.236.471Z" transform="translate(-89.525 -40.863)"/><path class="a" d="M110.237,47.33l-1.6-4.16,1.552-.595a4.157,4.157,0,0,1,.64-.2,1.278,1.278,0,0,1,.584,0,1.087,1.087,0,0,1,.483.273,1.464,1.464,0,0,1,.355,1.549,1.7,1.7,0,0,1-1.066.83l-1.055.4.651,1.691Zm-.3-2.394L111,44.528a1.192,1.192,0,0,0,.673-.486.769.769,0,0,0,.007-.643.821.821,0,0,0-.3-.4.656.656,0,0,0-.438-.112,2.572,2.572,0,0,0-.524.157l-1.051.4Z" transform="translate(-96.905 -38.334)"/><path class="a" d="M122.252,44.085l-1.332-4.253.557-.172,1.332,4.253Z" transform="translate(-104.592 -36.656)"/><path class="a" d="M126.67,37.181l2.761-.711.131.509-2.2.565.984,3.8-.565.146Z" transform="translate(-108.191 -34.66)"/><path class="a" d="M136.99,39.928l.808-4.7.617-.12,2.622,4.029-.651.127-.763-1.227-1.807.352-.217,1.418Zm.9-2.042,1.466-.284-.688-1.122c-.21-.34-.37-.625-.483-.849a5.471,5.471,0,0,1-.071.883Z" transform="translate(-114.65 -33.808)"/><path class="a" d="M148.78,32.865l.58-.064.217,1.99.842-.094a2.307,2.307,0,0,1,.449-1.571,1.841,1.841,0,0,1,1.3-.711,1.861,1.861,0,0,1,1.489.456,2.361,2.361,0,0,1,.744,1.593,2.442,2.442,0,0,1-.374,1.762,1.872,1.872,0,0,1-1.369.771,1.8,1.8,0,0,1-1.384-.385,2.318,2.318,0,0,1-.782-1.4l-.853.094.209,1.923-.58.064Zm2.248,2.016a1.994,1.994,0,0,0,.524,1.261,1.337,1.337,0,0,0,2.02-.221,2.094,2.094,0,0,0,.232-1.38,2.07,2.07,0,0,0-.516-1.264,1.323,1.323,0,0,0-2.031.228A2.164,2.164,0,0,0,151.028,34.882Z" transform="translate(-122.03 -32.114)"/><path class="a" d="M169.549,36.111l-.584.019-.06-1.8a3.954,3.954,0,0,1-1.362.34,1.494,1.494,0,0,1-.819-.191,1.07,1.07,0,0,1-.49-.535,2.755,2.755,0,0,1-.15-.872l-.045-1.309.584-.019.041,1.257a1.275,1.275,0,0,0,.3.95.937.937,0,0,0,.64.209,3.393,3.393,0,0,0,1.283-.322l-.075-2.166.584-.019Z" transform="translate(-132.834 -31.649)"/><path class="a" d="M179.2,31.63l.527.015-.108,3.527,2.45-3.456.587.019-.138,4.455-.527-.015.108-3.52L179.644,36.1l-.584-.019Z" transform="translate(-140.984 -31.63)"/><path class="a" d="M199.009,37.271l.5-3.9-1.44-.183.067-.52,3.464.445-.067.524-1.448-.187-.5,3.9Z" transform="translate(-152.883 -32.281)"/><path class="a" d="M208.6,38.783l.868-4.373,1.631.322a3.8,3.8,0,0,1,.651.172,1.3,1.3,0,0,1,.494.31,1.086,1.086,0,0,1,.262.49,1.335,1.335,0,0,1,.011.621,1.4,1.4,0,0,1-.539.875,1.713,1.713,0,0,1-1.343.135l-1.107-.221-.352,1.777Zm1.029-2.181,1.118.221a1.194,1.194,0,0,0,.83-.052.754.754,0,0,0,.348-.542.794.794,0,0,0-.045-.5.635.635,0,0,0-.31-.329,2.453,2.453,0,0,0-.527-.146l-1.1-.221Z" transform="translate(-159.474 -33.37)"/><path class="a" d="M218.05,41.513l2.805-3.853.606.165.565,4.773-.64-.176-.142-1.436-1.777-.486-.823,1.175Zm1.709-1.429,1.44.393-.12-1.313c-.037-.4-.056-.722-.06-.973a6.066,6.066,0,0,1-.453.759Z" transform="translate(-165.389 -35.404)"/><path class="a" d="M231.879,40.97l2.51.943-1.38,3.681.37.138-.55,1.466-.486-.183.367-.973-2.727-1.021-.367.973-.486-.183.55-1.466.322.12a6.673,6.673,0,0,0,1.65-2.884ZM233.66,42.2l-1.436-.539-.079.213c-.135.355-.348.827-.64,1.421a5.206,5.206,0,0,1-.939,1.38l1.9.714Z" transform="translate(-172.324 -37.476)"/><path class="a" d="M244.6,45.51l.471.239-1.594,3.15,3.684-2.095.524.266-2.009,3.98-.471-.239,1.59-3.142-3.685,2.083-.52-.262Z" transform="translate(-180.75 -40.318)"/><path class="a" d="M256.355,52.26l.479.333-2.256,3.221,1.882,1.317,2.256-3.221.479.337-2.256,3.221.329.232-1.014,1.444-.423-.3.711-1.014L253.8,55.911Z" transform="translate(-187.766 -44.543)"/><path class="a" d="M264.37,64.557l3.022-3.277.43.4L264.8,64.953Z" transform="translate(-194.382 -50.189)"/><path class="a" d="M268.29,67.25l3.329-2.966.389.434-3.329,2.966Zm3.157-3.565.464-.415.374.423-.464.415Zm.748.834.464-.415.374.423-.464.415Z" transform="translate(-196.836 -51.435)"/></g><g transform="translate(37.686 108.314)"><path class="a" d="M104.75,298.86l1.945-4.014-1.545-.748.262-.539,3.714,1.8-.262.539-1.549-.752-1.945,4.014Z" transform="translate(-104.75 -293.56)"/><path class="a" d="M114.54,304.1l1.631-4.788,1.848.628a2.49,2.49,0,0,1,.857.453,1.259,1.259,0,0,1,.359,1.328,1.107,1.107,0,0,1-.37.52,1.285,1.285,0,0,1-.666.262,1.35,1.35,0,0,1,.539.67,1.2,1.2,0,0,1-.007.808,1.419,1.419,0,0,1-.359.576,1.277,1.277,0,0,1-.512.322,1.571,1.571,0,0,1-.621.052,3.4,3.4,0,0,1-.823-.191Zm.845-.344,1.227.419a2.7,2.7,0,0,0,.453.127,1.137,1.137,0,0,0,.423,0,.735.735,0,0,0,.34-.18.855.855,0,0,0,.236-.37.833.833,0,0,0,.019-.512.788.788,0,0,0-.3-.412,2.532,2.532,0,0,0-.7-.325l-1.141-.389Zm.752-2.211,1.066.363a2.717,2.717,0,0,0,.64.157.742.742,0,0,0,.456-.112.712.712,0,0,0,.269-.374.81.81,0,0,0,.026-.46.627.627,0,0,0-.251-.363,3.092,3.092,0,0,0-.726-.322l-.984-.337Z" transform="translate(-110.878 -297.159)"/><path class="a" d="M129.341,306.514a2.7,2.7,0,0,1,1.115-1.769,2.416,2.416,0,0,1,1.911-.3,2.531,2.531,0,0,1,1.193.613,2.186,2.186,0,0,1,.655,1.1,2.965,2.965,0,0,1,0,1.392,2.873,2.873,0,0,1-.617,1.272,2.132,2.132,0,0,1-1.085.7,2.686,2.686,0,0,1-1.3.026,2.506,2.506,0,0,1-1.2-.628,2.242,2.242,0,0,1-.647-1.111A2.7,2.7,0,0,1,129.341,306.514Zm.688.168a1.99,1.99,0,0,0,.176,1.515,1.8,1.8,0,0,0,2.488.557,2.113,2.113,0,0,0,.823-1.362,2.562,2.562,0,0,0,.03-1.1,1.61,1.61,0,0,0-.456-.834,1.752,1.752,0,0,0-.849-.453,1.787,1.787,0,0,0-1.335.2A2.154,2.154,0,0,0,130.029,306.683Z" transform="translate(-120.098 -300.327)"/><path class="a" d="M146.2,306.74l3.337.453-.079.591-2.652-.359-.6,4.421-.685-.094Z" transform="translate(-130.27 -301.81)"/><path class="a" d="M156.731,310.768a2.7,2.7,0,0,1,.815-1.926,2.4,2.4,0,0,1,1.837-.6,2.545,2.545,0,0,1,1.276.415,2.22,2.22,0,0,1,.823.984,2.994,2.994,0,0,1,.221,1.373,2.862,2.862,0,0,1-.4,1.354,2.138,2.138,0,0,1-.961.86,2.68,2.68,0,0,1-1.283.236,2.5,2.5,0,0,1-1.291-.426,2.262,2.262,0,0,1-.819-1A2.745,2.745,0,0,1,156.731,310.768Zm.711.056a2,2,0,0,0,.415,1.47,1.8,1.8,0,0,0,2.544.15,2.123,2.123,0,0,0,.595-1.474,2.462,2.462,0,0,0-.15-1.089,1.623,1.623,0,0,0-.584-.752,1.744,1.744,0,0,0-.913-.31,1.792,1.792,0,0,0-1.287.411A2.134,2.134,0,0,0,157.441,310.824Z" transform="translate(-137.283 -302.745)"/><path class="a" d="M180.733,313.381l-.333-5.046,1.036-.067,1.466,3.494c.135.325.236.569.3.729.049-.187.12-.464.224-.827l1.014-3.595.924-.06.333,5.046-.662.045-.281-4.223L183.52,313.2l-.621.041-1.788-4.2.284,4.3Z" transform="translate(-152.102 -302.605)"/><path class="a" d="M198.667,312.226l-.677-5.012.685-.094.677,5.012Z" transform="translate(-163.113 -302.048)"/><path class="a" d="M208.793,308.022l.707.026a2.231,2.231,0,0,1-.512,1.388,2.182,2.182,0,0,1-1.261.7,2.536,2.536,0,0,1-1.406-.052,2.084,2.084,0,0,1-.98-.786,3.337,3.337,0,0,1-.542-1.272,2.938,2.938,0,0,1,.026-1.414,2.1,2.1,0,0,1,.688-1.055,2.651,2.651,0,0,1,1.175-.554,2.162,2.162,0,0,1,1.365.116,2,2,0,0,1,.946.916l-.632.288a1.539,1.539,0,0,0-.677-.681,1.441,1.441,0,0,0-.9-.075,1.721,1.721,0,0,0-.928.475,1.5,1.5,0,0,0-.4.849,2.9,2.9,0,0,0,.034.984,3,3,0,0,0,.415,1.066,1.408,1.408,0,0,0,.733.584,1.721,1.721,0,0,0,.913.056,1.509,1.509,0,0,0,.894-.516A1.586,1.586,0,0,0,208.793,308.022Z" transform="translate(-167.328 -300.687)"/><path class="a" d="M220.242,306.124l-1.3-4.268-1.642.5-.172-.572,3.95-1.2.172.572-1.65.5,1.3,4.268Z" transform="translate(-175.093 -297.954)"/><path class="a" d="M233.342,303.311l-.142-5.439.685-.292,3.943,3.819-.722.307-1.16-1.171-2.005.853.075,1.635Zm.569-2.5,1.623-.692-1.047-1.077q-.477-.488-.752-.819a6.283,6.283,0,0,1,.12,1Z" transform="translate(-185.152 -296.076)"/></g><g transform="translate(11.94 56.047)"><path class="a" d="M42.851,164.316a6.357,6.357,0,0,0,.266,2.218c0,.254.546,0,.546.531-1.156.344-2.312-.015-3.483,0,0,0,0-.531.281-.531h.254a61.207,61.207,0,0,0,.281-7.3v-2.671c0-.8.251-1.328,0-1.863H38.591c-.015,2.488-.266,4.971-.266,7.47v2.671c0,.266-.015.718-.015,1.1,0,.531.718.453.546,1.025-.12.385-1.65.333-2.405.187-.266-.052-.251-.187-.251-.438,0-.281.251-.281.531-.531v-7.219a27.064,27.064,0,0,0,0-4.545c-.281,0-.812,0-.812-.254.281-.531,1.062-.281,1.594-.281h5.611c.546,0,.266.812-.266.812v9.613Z" transform="translate(-35.92 -153.832)"/><path class="a" d="M63.6,155.28c-.266-.146-.266-.146-.546-.281a4.432,4.432,0,0,0-1.889.281c-.281.254-.239.666-.239,1.276,0,.759-.041,1.156-.041,1.687,0,.823.281,1.369,0,1.915a3.115,3.115,0,0,0,1.62.254c0-.254,0-.8.281-.8s.266,0,.546.266c-.281.531.266,2.181-.281,2.181,0,0-.546-.281-.546-.546v-.281H61.159a9.089,9.089,0,0,0-.079,2.753c0,.823.079,1.874.079,2.405a6.039,6.039,0,0,0,2.166.266c.546-.266,0-1.077.546-1.343.546,0,.546.8.546,1.343,0,.281-.281.546-.546.823H62.5a23.951,23.951,0,0,1-4.332-.281v-.546h1.089a25.2,25.2,0,0,0,0-4.6v-6.782H58.17v-.546c1.089-.281,2.166-.281,3.258-.546H64.14a.918.918,0,0,1,.281.546c0,.546.546,1.623-.546,1.623C63.6,156.08,63.878,155.534,63.6,155.28Z" transform="translate(-49.847 -154.05)"/><path class="a" d="M80.553,167.267a13.348,13.348,0,0,1-3.352,0,.913.913,0,0,1-.292-.557c.292-.281.292-.281.838-.281.292-.266.1-.931.1-1.343-.015-1.822.067-3.15.067-4.56,0-.546.067-1.249,0-2.14-.052-.61.015-.969,0-2.113,0-.4.079-.771-.187-.879-.344-.146-.5.026-.8-.239-.546-.292-.1-.557.187-.823a22.019,22.019,0,0,1,3.976-.172c.281,0,.161-.067.572,0,1.089.172,1.941,1.676,2.222,3.071a5.449,5.449,0,0,1-.281,2.233c-.266.838-1.1,1.4-1.676,1.941A3.922,3.922,0,0,1,80,161.7a.282.282,0,0,0-.281.281c-.015.239,0,.838,0,1.1a12.888,12.888,0,0,0,0,3.352C80.553,166.429,81.1,166.71,80.553,167.267Zm-.838-6.7a1.007,1.007,0,0,0,1.077.172,2.8,2.8,0,0,0,1.145-1.556,4.411,4.411,0,0,0,.2-1.623,5.666,5.666,0,0,0-.464-2.274c-.292,0-.572-.292-1.115-.292h-.842a20.071,20.071,0,0,0,0,4.186Z" transform="translate(-61.431 -154.019)"/><path class="a" d="M107.942,156.807V160.7l-.1,1.264.1,1.249v3.2c.531,0,.812.812.266.812H103a4.644,4.644,0,0,1-1.036.026,24.271,24.271,0,0,0-3.363.146c-.292-.266-.494-.266-.359-.8a4.628,4.628,0,0,0,.094-1.13,41.9,41.9,0,0,0,.026-4.279l.12-.692c0-.823.12-1.65.12-2.458a9.463,9.463,0,0,0-.4-2.779c0-.266-.266-.266-.557-.531v-.557h.292a19.674,19.674,0,0,1,2.551-.1c.266.026.213.052.213.374-.266.557-.531.557-.531.823,0,1.062-.026,2.113-.052,3.15-.015.479.041.958.026,1.436-.015.572-.1,1.13-.1,1.7-.026,1.436-.015,2.91.094,4.481,0,.266-.015.254.292.266.281.015.266,0,.531,0,0,0,1.145.015,1.489,0a34.992,34.992,0,0,0-.052-4.148v-7.219c-.281-.254-.531-.254-.531-.531,0-.254-.015-.385.254-.438.759-.146,2.113-.2,2.233.187.172.572-.546.494-.546,1.025,0,.385.015.838.015,1.1v.958l.1,1.713c0,.864-.213,1.728-.172,2.592.026.426.172.864.2,1.3.067,1.2.135,2.394.135,3.576h2.14c.251-.531,0-1.062,0-1.863V161.89c0-.6.131-1.223.131-1.848-.015-.771-.161-1.541-.187-2.285a14.306,14.306,0,0,0-.224-3.165h-.251c-.281,0-.281-.531-.281-.531,1.171.015,2.192-.344,3.352,0,0,.531-.546.281-.546.531A6.243,6.243,0,0,0,107.942,156.807Z" transform="translate(-74.553 -153.849)"/><path class="a" d="M133.412,161.42c-.531,0-1.384-.281-2.207-.281-.292.281-.292.838-.292,1.436a15.544,15.544,0,0,0-.307,3.92c.307.254.6,0,.849.254a4.112,4.112,0,0,1-.041.557c-.849.584-1.65-.015-2.461.292l-.584-.557a1.423,1.423,0,0,1,.838-.546c.292,0,.292-.281.292-.572.266-1.7.546-4.2.823-6.179a4.98,4.98,0,0,1,.584-2.233,8.707,8.707,0,0,1,1.384-2.805s.584-.6,1.118-.292a2.779,2.779,0,0,1,1.171,1.968,4.537,4.537,0,0,1,.426,1.5c.266,2.207.4,4.691.651,7.193v1.7c0,.254.584.557,0,.838l-.344-.079c-.557,0-1.036.079-1.608.079-.292.026-.744.146-.744-.1,0-.292.453-1.025.744-1.025A27.884,27.884,0,0,0,133.412,161.42Zm-1.956-2.51c0,.254-.254,1.1-.254,1.421a7.563,7.563,0,0,0,2.207.251v-1.676a9.6,9.6,0,0,0-.531-2.817.278.278,0,0,0-.292-.281l-.292.281C132.028,156.916,131.737,157.791,131.456,158.91Z" transform="translate(-93.788 -154.141)"/><path class="a" d="M174.571,164.316a6.358,6.358,0,0,0,.266,2.218c0,.254.546,0,.546.531-1.156.344-2.312-.015-3.483,0,0,0,0-.531.281-.531h.254a61.2,61.2,0,0,0,.281-7.3v-2.671c0-.8.251-1.328,0-1.863h-2.405c-.015,2.488-.266,4.971-.266,7.47v2.671c0,.266-.015.718-.015,1.1,0,.531.718.453.546,1.025-.12.385-1.65.333-2.405.187-.266-.052-.251-.187-.251-.438,0-.281.251-.281.531-.531v-7.219a27.064,27.064,0,0,0,0-4.545c-.281,0-.812,0-.812-.254.281-.531,1.062-.281,1.593-.281h5.611c.546,0,.266.812-.266.812v9.613Z" transform="translate(-118.369 -153.832)"/><path class="a" d="M195.318,155.28c-.266-.146-.266-.146-.546-.281a4.432,4.432,0,0,0-1.889.281c-.281.254-.239.666-.239,1.276,0,.759-.041,1.156-.041,1.687,0,.823.281,1.369,0,1.915a3.123,3.123,0,0,0,1.623.254c0-.254,0-.8.281-.8s.266,0,.546.266c-.281.531.266,2.181-.281,2.181,0,0-.546-.281-.546-.546v-.281h-1.343a9.089,9.089,0,0,0-.079,2.753c0,.823.079,1.874.079,2.405a6.039,6.039,0,0,0,2.166.266c.546-.266,0-1.077.546-1.343.546,0,.546.8.546,1.343,0,.281-.281.546-.546.823h-1.369a24.011,24.011,0,0,1-4.335-.281v-.546h1.089a25.206,25.206,0,0,0,0-4.6v-6.782H189.89v-.546c1.089-.281,2.166-.281,3.258-.546h2.712a.918.918,0,0,1,.281.546c0,.546.546,1.623-.546,1.623C195.318,156.08,195.594,155.534,195.318,155.28Z" transform="translate(-132.296 -154.05)"/><path class="a" d="M213.295,158.005c-.266.546-.546,1.077-.812,1.608,0,.281,0,.281.266.281.281.266.8.531,1.077.8.812,1.077.812,2.7,1.077,4.04,0,.546-.266,1.062,0,1.343,0,.266.61.5.61.786a1.1,1.1,0,0,1-.187.52c-.812,0-1.941.041-2.473.041a.433.433,0,0,1-.1-.531l.546-.546c.251-.546,0-1.062,0-1.608v-1.889c0-.8-.266-1.889-.812-2.155a1.754,1.754,0,0,0-1.623,0c-.546.546-.266,2.155-.266,3.217,0,.546-.281.823-.281,1.369v1.062c.546.266.823.8.281,1.077-.8-.281-1.343.266-2.14,0-.281-.281-.281-.281-.281-.531.281-.281.531-.281.531-.546v-3.5s.026-.015.026-.292l-.026-.251a10.27,10.27,0,0,0,.281-1.343,26.62,26.62,0,0,0-.281-4.84v-.8c-.251,0-.531,0-.531-.281-.266,0-.213-.584-.026-.771s.5-.026,1.051-.026,1.941-.266,1.941.531c0,.266-.281.266-.546.546,0,1.062.266,1.889.266,2.951,0,.281-.266.812,0,1.077a2.969,2.969,0,0,0,1.889-2.42c0-.546.281-1.062.281-1.608h-.546c0-.281-.281-.281-.281-.546.281-.531,1.089-.266,1.62-.531.812.266.531,1.077,0,1.077A8.331,8.331,0,0,1,213.295,158.005Z" transform="translate(-143.626 -154.049)"/><path class="a" d="M234.319,161.42c-.531,0-1.384-.281-2.207-.281-.292.281-.292.838-.292,1.436a15.544,15.544,0,0,0-.307,3.92c.307.254.6,0,.849.254a4.111,4.111,0,0,1-.041.557c-.849.584-1.65-.015-2.458.292l-.584-.557a1.423,1.423,0,0,1,.838-.546c.292,0,.292-.281.292-.572.266-1.7.546-4.2.823-6.179a4.98,4.98,0,0,1,.584-2.233,8.707,8.707,0,0,1,1.384-2.805s.584-.6,1.115-.292a2.779,2.779,0,0,1,1.171,1.968,4.448,4.448,0,0,1,.426,1.5c.266,2.207.4,4.691.651,7.193v1.7c0,.254.584.557,0,.838l-.344-.079c-.557,0-1.036.079-1.608.079-.292.026-.744.146-.744-.1,0-.292.453-1.025.744-1.025A27.883,27.883,0,0,0,234.319,161.42Zm-1.956-2.51c0,.254-.251,1.1-.251,1.421a7.564,7.564,0,0,0,2.207.251v-1.676a9.6,9.6,0,0,0-.531-2.817.278.278,0,0,0-.292-.281l-.292.281C232.935,156.916,232.643,157.791,232.362,158.91Z" transform="translate(-156.952 -154.141)"/><path class="a" d="M255.553,167.267a13.348,13.348,0,0,1-3.352,0,.913.913,0,0,1-.292-.557c.292-.281.292-.281.838-.281.292-.266.1-.931.1-1.343-.015-1.822.067-3.15.067-4.56,0-.546.067-1.249,0-2.14-.052-.61.015-.969,0-2.113,0-.4.079-.771-.187-.879-.344-.146-.5.026-.8-.239-.546-.292-.1-.557.187-.823a22.019,22.019,0,0,1,3.976-.172c.281,0,.161-.067.572,0,1.089.172,1.941,1.676,2.218,3.071a5.449,5.449,0,0,1-.281,2.233c-.266.838-1.1,1.4-1.676,1.941a3.922,3.922,0,0,1-1.941.292.282.282,0,0,0-.281.281c-.015.239,0,.838,0,1.1a12.889,12.889,0,0,0,0,3.352C255.553,166.429,256.1,166.71,255.553,167.267Zm-.834-6.7a1.007,1.007,0,0,0,1.077.172,2.8,2.8,0,0,0,1.145-1.556,4.412,4.412,0,0,0,.2-1.623,5.666,5.666,0,0,0-.464-2.274c-.292,0-.572-.292-1.118-.292h-.838a20.072,20.072,0,0,0,0,4.186Z" transform="translate(-170.971 -154.019)"/><path class="a" d="M279.519,157.448v4.586c0,1.354.281,2.992.281,4.332.266.266.546.266.546.546v.546s-.079-.239-.266-.052a.9.9,0,0,1-.411.067c-.281,0-.411-.015-.958-.015-.281,0-.385.015-.64.015-.266-.266-.161-.292.1-.557,0-.281.531-.281.531-.546a57.522,57.522,0,0,0,0-6.767.275.275,0,0,0-.281-.281,9.178,9.178,0,0,0-2.7,0,2.3,2.3,0,0,0-.546,1.915v3.785c.281.546,0,.8.281,1.343.266,0,.812.546.266.812a8.7,8.7,0,0,1-2.7,0s-.281-.546,0-.812h.546v-9.2c-.281-.546,0-1.358-.281-1.9a.85.85,0,0,1-.546-.281.383.383,0,0,1,0-.546h1.089c.546,0,1.343-.266,1.889,0a.587.587,0,0,1,.546.546c0,.281-.546.281-.812.281-.281.266,0,.546,0,1.089s-.281,1.358,0,1.889a6.7,6.7,0,0,0,3.243,0,10.779,10.779,0,0,0-.281-2.978c-.251-.281-.8,0-1.062-.281v-.546a2.51,2.51,0,0,1,1.608-.266,4.279,4.279,0,0,0,.823,0c.546.266.546,1.089,0,1.089A5.275,5.275,0,0,0,279.519,157.448Z" transform="translate(-184.089 -154.022)"/><path class="a" d="M300.771,155.644c0,1.436.015,2.488-.094,3.681-.052.64.094,4.362.094,2.446v4.852a1.084,1.084,0,0,1,.849.266c-.292.584-.557.584-1.145.584a5.491,5.491,0,0,0-2.181-.079c-.281,0-.239-.213-.239-.5,0-.266.572-.266.572-.546a3.93,3.93,0,0,0,.266-1.728c0-1.036.041-2.592-.026-3.946-.572-.292-.931-.146-1.463.266a2.314,2.314,0,0,0-.546,1.889v1.889c0,.546-.254,1.062,0,1.608l.546.546a.434.434,0,0,1-.1.531c-.531,0-1.781-.041-2.592-.041a1.077,1.077,0,0,1-.187-.52c0-.281.61-.52.61-.786.266-.281.135-1.062.135-1.608a8.579,8.579,0,0,1,.812-3.774,5.727,5.727,0,0,1,.5-.426,3.908,3.908,0,0,1-1.1-1.65,4.485,4.485,0,0,1,0-2.42c.4-1.65,2.727-2.248,4.455-1.953.266,0,.359.161.64.161.864,0,1.234.015,1.234.849C301.807,155.524,301.328,155.644,300.771,155.644Zm-1.833,3.961.1-.6c.079-1.515.12-2.7.12-3.909a4.938,4.938,0,0,0-1.4.094,1.723,1.723,0,0,0-.7,1.276,5.227,5.227,0,0,0,0,1.29,3.355,3.355,0,0,0,1.01,1.874C298.392,159.62,298.7,159.62,298.938,159.6Z" transform="translate(-197.788 -154.029)"/></g><ellipse class="a" cx="2.289" cy="2.289" rx="2.289" ry="2.289" transform="translate(92.808 106.57)"/><ellipse class="a" cx="2.289" cy="2.289" rx="2.289" ry="2.289" transform="translate(28.503 106.57)"/></g></svg>