<svg xmlns="http://www.w3.org/2000/svg" viewBox="0 0 492.364 513.108"><defs><style>.a{fill:#f1f1f1;}.b{fill:#fcd73f;opacity:0.2;}</style></defs><g transform="translate(-1024 -3082.894)"><path class="a" d="M-12.494,13.451Q35.218-34.125,105.325-34.125q50.784,0,82.164,25.922t31.38,70.232q0,20.832-6.546,36.9a71.421,71.421,0,0,1-18.972,27.037,114.175,114.175,0,0,1-27.736,18.062A192.9,192.9,0,0,1,130.332,156L124.8,184.9H69.913L58.626,109.433l3.54-3.974q38.291-3.339,54.778-12.36t16.488-24.61q0-11.8-8.963-18.485T99.351,43.323Q66.508,43.323,33,73.389ZM51.324,288.982V211.534h89.431v77.448Z" transform="translate(1297.494 3117.019)"/><path class="a" d="M-12.494-14.055q20.127-20.07,49.7-20.07,21.423,0,34.66,10.935T85.1,6.437A41,41,0,0,1,82.343,22a30.128,30.128,0,0,1-8,11.405,48.164,48.164,0,0,1-11.7,7.619,81.375,81.375,0,0,1-14.884,5.048L45.421,58.27H22.268L17.507,26.433,19,24.757q16.153-1.409,23.108-5.214T49.063,9.162a9.183,9.183,0,0,0-3.781-7.8Q41.5-1.454,34.687-1.454q-13.855,0-27.99,12.683Zm26.921,116.23V69.5H52.153v32.671Z" transform="translate(1134.494 3167.027)"/><path class="b" d="M-12.494,6.341Q28.087-34.125,87.718-34.125q43.194,0,69.885,22.048t26.69,59.737q0,17.719-5.568,31.386a60.748,60.748,0,0,1-16.137,23A97.112,97.112,0,0,1,139,117.4a164.075,164.075,0,0,1-30.01,10.179l-4.707,24.588H57.6L48,87.979l3.011-3.38Q83.577,81.759,97.6,74.086t14.024-20.932q0-10.039-7.624-15.722T82.636,31.749Q54.7,31.749,26.2,57.322ZM41.786,240.7V174.822h76.066V240.7Z" transform="translate(1036.494 3355.306)"/></g></svg>