<svg xmlns="http://www.w3.org/2000/svg" viewBox="0 0 196 245.019"><defs><style>.a{fill:#515151;opacity:0.2;}.b{fill:#fcd73f;}</style></defs><g transform="translate(-862 -5084.984)"><path class="a" d="M2.637-54.567,75.2-141.016h39.16v84.863h17.871v29.395H114.355V0h-37.6V-26.758H8.984Zm40.723-1.39h33.4V-96.191Z" transform="translate(859.363 5226)"/><g transform="translate(-378.986 229)"><ellipse class="b" cx="63" cy="64" rx="63" ry="64" transform="translate(1310.986 4950)"/><g transform="translate(1240.986 4925.992)"><g transform="translate(90.922 104.597)"><path d="M269.417,305.991a3.418,3.418,0,1,0,3.418,3.418A3.419,3.419,0,0,0,269.417,305.991Z" transform="translate(-265.999 -305.991)"/></g><g transform="translate(84.086 63.58)"><path d="M249.417,185.991a3.418,3.418,0,1,0,3.418,3.418A3.419,3.419,0,0,0,249.417,185.991Z" transform="translate(-245.999 -185.991)"/></g><g transform="translate(70.413 49.907)"><path d="M223.09,145.991a17.091,17.091,0,1,0,17.091,17.091A17.11,17.11,0,0,0,223.09,145.991Zm0,27.345a10.254,10.254,0,1,1,10.254-10.254A10.266,10.266,0,0,1,223.09,173.336Z" transform="translate(-205.999 -145.991)"/></g><g transform="translate(0 0.008)"><path d="M153.474,133.993c-9.051,0-17.368,5.807-20.337,13.717a17.069,17.069,0,0,0-5.86.6,20.569,20.569,0,0,0-22.683-6.323v-19.5l3.841-7.683,10.405,15.608a3.418,3.418,0,0,0,6.178-1.143l4.746-21.018c3.364-10.326-.111-21.406-8.488-27a23.771,23.771,0,0,0-5.477-2.71l1.3-8.859c0-.025.007-.049.01-.073,1.962-15.706-.742-33.478-8.611-47A77.354,77.354,0,0,0,89.5.644,3.441,3.441,0,0,0,85.27.833c-.059.05-.156.127-.286.233C72.139,11.456,62.139,26.285,58.4,43c-1.812,8.1-1.554,18.209-.709,24.968,0,.023.006.046.009.07l1.535,10.506a23.81,23.81,0,0,0-5.506,2.718c-8.375,5.59-11.85,16.67-8.487,27l4.746,21.018a3.418,3.418,0,0,0,6.178,1.143l10.405-15.608,3.841,7.683V142a20.539,20.539,0,0,0-22.683,6.316,17.071,17.071,0,0,0-5.859-.6c-2.968-7.91-11.286-13.717-20.336-13.717C9.862,133.994,0,143.386,0,154.5s9.862,20.509,21.534,20.509h131.94c11.673,0,21.534-9.392,21.534-20.509S165.147,133.993,153.474,133.993ZM114.781,85.483a17.042,17.042,0,0,1,2.7,1.466c5.772,3.853,8.186,11.976,5.74,19.317q-.054.162-.091.327l-3.026,13.4-8.521-12.782ZM87.543,7.838a72.785,72.785,0,0,1,16.083,20.091A23.907,23.907,0,0,1,71.349,27.9,73.452,73.452,0,0,1,87.543,7.838ZM54.9,119.995l-3.026-13.4a3.365,3.365,0,0,0-.091-.327c-2.446-7.34-.031-15.464,5.738-19.315a17.083,17.083,0,0,1,2.726-1.475l3.176,21.736ZM69.95,104.6,64.469,67.086c-.968-7.767-.733-16.631.6-22.592A62.91,62.91,0,0,1,68.3,34.287a30.743,30.743,0,0,0,38.214.149,75.091,75.091,0,0,1,3.817,34.3l-5.623,38.241L99.064,118.27H75.944l-3.418-6.836h8.142a3.418,3.418,0,0,0,0-6.836Zm83.524,63.577H21.534c-7.83,0-14.7-6.389-14.7-13.673s6.868-13.673,14.7-13.673a15.286,15.286,0,0,1,13.714,8.734,17.087,17.087,0,0,0-4.266,3.112,3.418,3.418,0,0,0,4.839,4.829,10.21,10.21,0,0,1,4.493-2.628h0l.008,0a10.239,10.239,0,0,1,9.991,2.629,3.418,3.418,0,0,0,4.841-4.826c-.377-.379-.772-.736-1.181-1.076a13.667,13.667,0,0,1,16.439-2.1v8.418a3.418,3.418,0,0,0,6.836,0V125.106H97.758V157.92a3.418,3.418,0,0,0,6.836,0v-8.427a13.69,13.69,0,0,1,16.439,2.108c-.408.339-.8.7-1.181,1.076a3.418,3.418,0,0,0,4.841,4.826,10.24,10.24,0,0,1,14.493,0,3.418,3.418,0,0,0,4.839-4.829,17.1,17.1,0,0,0-4.266-3.112,15.287,15.287,0,0,1,13.714-8.734c7.83,0,14.7,6.389,14.7,13.673S161.3,168.175,153.474,168.175Z" transform="translate(0 -0.008)"/></g></g></g></g></svg>