<svg xmlns="http://www.w3.org/2000/svg" viewBox="0 0 196 246.386"><defs><style>.a{fill:#fcd73f;}.b{fill:#515151;opacity:0.2;}</style></defs><g transform="translate(-534 -4841.617)"><g transform="translate(-700 -13)"><ellipse class="a" cx="63" cy="64" rx="63" ry="64" transform="translate(1304 4950)"/><g transform="translate(1234 4926)"><path d="M131.252,11.667H105V2.917A2.917,2.917,0,0,0,102.085,0h-70a2.917,2.917,0,0,0-2.917,2.917v8.75H2.917A2.917,2.917,0,0,0,0,14.584v157.5A2.917,2.917,0,0,0,2.917,175H131.252a2.917,2.917,0,0,0,2.917-2.917V14.584A2.917,2.917,0,0,0,131.252,11.667ZM35,5.833H99.168v5.833H35ZM35,17.5H99.168V29.167H75.336a8.75,8.75,0,0,0-16.5,0H35Zm93.335,151.669H5.833V17.5H29.167V32.084A2.917,2.917,0,0,0,32.084,35H61.251a2.917,2.917,0,0,0,2.917-2.917,2.917,2.917,0,1,1,5.833,0A2.917,2.917,0,0,0,72.918,35h29.167A2.917,2.917,0,0,0,105,32.084V17.5h23.334Z"/><g transform="translate(17.5 40.834)"><path d="M59.667,112a11.667,11.667,0,1,0,11.667,11.667A11.667,11.667,0,0,0,59.667,112Zm0,17.5a5.833,5.833,0,1,1,5.833-5.833A5.833,5.833,0,0,1,59.667,129.5Z" transform="translate(-48 -112)"/></g><g transform="translate(17.5 70.001)"><path d="M59.667,192a11.667,11.667,0,1,0,11.667,11.667A11.667,11.667,0,0,0,59.667,192Zm0,17.5a5.833,5.833,0,1,1,5.833-5.833A5.833,5.833,0,0,1,59.667,209.5Z" transform="translate(-48 -192)"/></g><g transform="translate(70.001 43.751)"><path d="M235.751,120H194.917a2.917,2.917,0,1,0,0,5.833h40.834a2.917,2.917,0,1,0,0-5.833Z" transform="translate(-192 -120)"/></g><g transform="translate(46.667 43.751)"><path d="M142.584,120H130.917a2.917,2.917,0,1,0,0,5.833h11.667a2.917,2.917,0,1,0,0-5.833Z" transform="translate(-128 -120)"/></g><g transform="translate(87.501 55.418)"><path d="M266.25,152H242.917a2.917,2.917,0,0,0,0,5.833H266.25a2.917,2.917,0,1,0,0-5.833Z" transform="translate(-240 -152)"/></g><g transform="translate(46.667 55.418)"><path d="M160.084,152H130.917a2.917,2.917,0,0,0,0,5.833h29.167a2.917,2.917,0,0,0,0-5.833Z" transform="translate(-128 -152)"/></g><g transform="translate(99.168 72.918)"><path d="M286.584,200H274.917a2.917,2.917,0,1,0,0,5.833h11.667a2.917,2.917,0,1,0,0-5.833Z" transform="translate(-272 -200)"/></g><g transform="translate(46.667 72.918)"><path d="M171.751,200H130.917a2.917,2.917,0,0,0,0,5.833h40.834a2.917,2.917,0,0,0,0-5.833Z" transform="translate(-128 -200)"/></g><g transform="translate(78.751 84.585)"><path d="M251,232H218.917a2.917,2.917,0,0,0,0,5.833H251A2.917,2.917,0,0,0,251,232Z" transform="translate(-216 -232)"/></g><g transform="translate(46.667 84.585)"><path d="M151.334,232H130.917a2.917,2.917,0,0,0,0,5.833h20.417a2.917,2.917,0,0,0,0-5.833Z" transform="translate(-128 -232)"/></g><g transform="translate(140.002)"><path d="M407.334,11.959v-.292a11.667,11.667,0,1,0-23.334,0v140c0,.038.02.07.02.1a2.9,2.9,0,0,0,.181.9c.026.064.041.131.067.193s.02.073.038.108l8.444,16.885v2.228a2.917,2.917,0,1,0,5.833,0v-2.228l8.458-16.885c.017-.035.02-.073.038-.108s.041-.128.067-.193a2.9,2.9,0,0,0,.181-.9c0-.038.02-.067.02-.1V18.037a8.75,8.75,0,0,1,5.819,8.213V52.5a2.917,2.917,0,0,0,5.833,0V26.25A14.61,14.61,0,0,0,407.334,11.959ZM395.667,162.648l-4.031-8.062H399.7Zm5.833-13.9H389.833V67.084H401.5Zm0-87.5H389.833V17.5H401.5ZM389.833,11.667a5.833,5.833,0,1,1,11.667,0Z" transform="translate(-384)"/></g><g transform="translate(17.459 99.155)"><path d="M117.93,286.56v-5.833h-8.75a2.916,2.916,0,0,0-2.062.855l-2.24,2.24a32.084,32.084,0,1,0-4.679,45.132q.413-.335.814-.684a32.032,32.032,0,0,0,3.815-4l2.272,2.272a2.916,2.916,0,0,0,2.08.849h8.75v-5.833h-7.543l-2.225-2.225a31.824,31.824,0,0,0,.038-30.588l2.188-2.188h7.543Zm-14.079,28.464-4.276-4.276-4.124,4.124,5.271,5.268c-.5.636-1.012,1.257-1.566,1.849L84.137,306.977H106.1A26.161,26.161,0,0,1,103.851,315.024ZM77.1,301.143a2.917,2.917,0,0,0-2.062,4.979L94.7,325.789a26.25,26.25,0,1,1,6.023-37.824l-5.282,5.282,4.124,4.124,4.264-4.261a25.961,25.961,0,0,1,2.272,8.033h-29Z" transform="translate(-47.888 -271.962)"/></g><g transform="translate(93.335 99.168)"><path d="M267.667,272a11.667,11.667,0,1,0,11.667,11.667A11.667,11.667,0,0,0,267.667,272Zm0,17.5a5.833,5.833,0,1,1,5.833-5.833A5.833,5.833,0,0,1,267.667,289.5Z" transform="translate(-256 -272)"/></g><g transform="translate(93.335 140.002)"><path d="M267.667,384a11.667,11.667,0,1,0,11.667,11.667A11.667,11.667,0,0,0,267.667,384Zm0,17.5a5.833,5.833,0,1,1,5.833-5.833A5.833,5.833,0,0,1,267.667,401.5Z" transform="translate(-256 -384)"/></g></g></g><path class="b" d="M6.348,0V-29.379l52.562-39.8q9.9-7.378,13.974-13.057a20.254,20.254,0,0,0,4.07-11.99q0-6.5-4.248-10.286T61.426-108.3a23.6,23.6,0,0,0-13.086,4.076q-6.25,4.076-14.746,13.779l-26.172-21.7q12.012-15.761,24.756-23t32.178-7.24q22.871,0,37.119,12.562t14.248,32.679a51.2,51.2,0,0,1-2,14.8,38.426,38.426,0,0,1-6.445,12.421,74.6,74.6,0,0,1-9.912,10.577A165.463,165.463,0,0,1,83.3-48.526L59.277-31.836H117.09V0Z" transform="translate(527.652 4984)"/></g></svg>