<svg xmlns="http://www.w3.org/2000/svg" viewBox="0 0 196 246.042"><defs><style>.a{fill:#fcd73f;}.b{fill:#515151;opacity:0.2;}</style></defs><g transform="translate(-1190 -4841.961)"><g transform="translate(-48 -13)"><ellipse class="a" cx="63" cy="64" rx="63" ry="64" transform="translate(1308 4950)"/><g transform="translate(1238 4922)"><g transform="translate(0 4)"><path d="M133.477,4H2.966A2.966,2.966,0,0,0,0,6.966V176.037A2.966,2.966,0,0,0,2.966,179H133.477a2.966,2.966,0,0,0,2.966-2.966V6.966A2.966,2.966,0,0,0,133.477,4Zm-2.966,169.071H5.932V9.932H130.511Z" transform="translate(0 -4)"/></g><g transform="translate(50.425 33.662)"><path d="M168.628,84H138.966a2.966,2.966,0,1,0,0,5.932h29.662a2.966,2.966,0,1,0,0-5.932Z" transform="translate(-136 -84)"/></g><g transform="translate(23.729 69.255)"><path d="M84.763,180h-17.8a2.966,2.966,0,1,0,0,5.932h17.8a2.966,2.966,0,0,0,0-5.932Z" transform="translate(-64 -180)"/></g><g transform="translate(53.391 69.255)"><path d="M212.221,180H146.966a2.966,2.966,0,0,0,0,5.932h65.255a2.966,2.966,0,1,0,0-5.932Z" transform="translate(-144 -180)"/></g><g transform="translate(11.865 81.12)"><path d="M141.748,212H34.966a2.966,2.966,0,0,0,0,5.932H141.748a2.966,2.966,0,0,0,0-5.932Z" transform="translate(-32 -212)"/></g><g transform="translate(11.865 92.985)"><path d="M112.086,244H34.966a2.966,2.966,0,0,0,0,5.932h77.12a2.966,2.966,0,0,0,0-5.932Z" transform="translate(-32 -244)"/></g><g transform="translate(100.849 92.985)"><path d="M292.763,244h-17.8a2.966,2.966,0,1,0,0,5.932h17.8a2.966,2.966,0,0,0,0-5.932Z" transform="translate(-272 -244)"/></g><g transform="translate(65.255 104.849)"><path d="M232.357,276H178.966a2.966,2.966,0,1,0,0,5.932h53.391a2.966,2.966,0,1,0,0-5.932Z" transform="translate(-176 -276)"/></g><g transform="translate(11.865 104.849)"><path d="M76.492,276H34.966a2.966,2.966,0,0,0,0,5.932H76.492a2.966,2.966,0,0,0,0-5.932Z" transform="translate(-32 -276)"/></g><g transform="translate(106.781 116.714)"><path d="M302.831,308H290.966a2.966,2.966,0,0,0,0,5.932h11.865a2.966,2.966,0,0,0,0-5.932Z" transform="translate(-288 -308)"/></g><g transform="translate(11.865 116.714)"><path d="M49.8,308H34.966a2.966,2.966,0,0,0,0,5.932H49.8a2.966,2.966,0,0,0,0-5.932Z" transform="translate(-32 -308)"/></g><g transform="translate(38.56 116.714)"><path d="M163.323,308H106.966a2.966,2.966,0,1,0,0,5.932h56.357a2.966,2.966,0,1,0,0-5.932Z" transform="translate(-104 -308)"/></g><g transform="translate(74.154 152.308)"><path d="M244.492,404H202.966a2.966,2.966,0,1,0,0,5.932h41.526a2.966,2.966,0,1,0,0-5.932Z" transform="translate(-200 -404)"/></g><g transform="translate(38.56 21.797)"><path d="M160.357,52H106.966a2.966,2.966,0,1,0,0,5.932h53.391a2.966,2.966,0,1,0,0-5.932Z" transform="translate(-104 -52)"/></g><g transform="translate(142.375 18.831)"><path d="M416.627,55.865h-8.9a11.865,11.865,0,1,0-23.729,0V162.646A31.39,31.39,0,0,0,393.26,185l.507.507a2.966,2.966,0,0,0,4.194,0l.507-.507a31.39,31.39,0,0,0,9.26-22.353V61.8h5.932v26.7h5.932V58.831A2.966,2.966,0,0,0,416.627,55.865Zm-20.763,123.2a25.436,25.436,0,0,1-5.763-13.454h11.526A25.435,25.435,0,0,1,395.864,179.067ZM401.8,159.68H389.932V61.8H401.8ZM389.932,55.865a5.932,5.932,0,1,1,11.865,0Z" transform="translate(-384 -44)"/></g><g transform="translate(83.052 51.458)"><path d="M262.56,132H226.966a2.966,2.966,0,0,0,0,5.932H262.56a2.966,2.966,0,0,0,0-5.932Z" transform="translate(-224 -132)"/></g><g transform="translate(11.865 128.578)"><path d="M100.221,340H34.966a2.966,2.966,0,0,0,0,5.932h65.255a2.966,2.966,0,0,0,0-5.932Z" transform="translate(-32 -340)"/></g></g></g><path class="b" d="M3.613-21.826,28.027-46.152q15.723,15.976,33.4,15.976,8.3,0,13.135-3.945a13.046,13.046,0,0,0,4.834-10.667,11.881,11.881,0,0,0-5.908-10.521q-5.908-3.8-16.846-3.8H40.234L34.57-79.271,66.8-108.2H13.184v-31.836H114.536v28.178L80.965-83.266A66.981,66.981,0,0,1,95.2-78.542a46.534,46.534,0,0,1,11.436,7.647A31.171,31.171,0,0,1,114.585-59.3a41.525,41.525,0,0,1,2.8,15.684q0,20.99-15.264,33.72T63.184,2.832Q25.977,2.832,3.613-21.826Z" transform="translate(1186.387 4982)"/></g></svg>